<svg width="272" height="208" viewBox="0 0 272 208" fill="none" xmlns="http://www.w3.org/2000/svg">
<g clip-path="url(#clip0)">
<path opacity="0.1" d="M23.6431 96.1359C19.8931 97.3631 16.3931 100.333 15.4481 104.453C14.3756 109.187 16.8456 113.971 17.1981 118.824C18.3506 134.756 -2.58441 145.996 0.400585 161.652C1.58809 167.865 6.38309 172.446 11.1106 176.215C18.6781 182.254 27.0731 187.586 36.3606 189.093C50.4706 191.38 65.2156 184.653 78.9331 188.906C89.9956 192.334 98.4606 202.387 109.448 206.097C117.813 208.922 126.821 207.807 135.518 206.665C140.196 206.052 145.111 205.34 148.893 202.297C155.936 196.632 156.361 185.447 161.071 177.43C168.338 165.055 184.273 162.638 197.636 165.043C210.998 167.447 223.966 173.375 237.503 172.874C240.396 172.772 243.363 172.343 245.883 170.808C248.951 168.94 251.026 165.651 252.858 162.395C264.278 142.109 270.641 118.511 271.093 94.7559C271.171 90.651 271.038 86.3683 269.256 82.7342C267.006 78.1485 262.506 75.411 258.006 73.5627C247.236 69.1497 235.338 68.436 224.781 63.4269C214.598 58.6007 206.348 50.133 197.483 42.8899C179.901 28.5015 159.233 18.5435 137.603 14.0229C132.511 12.9584 127.226 12.1971 122.166 13.4268C116.336 14.8443 111.311 18.7789 106.793 23.0116C94.7706 34.2819 85.1381 48.1769 74.0631 60.5242C66.4753 68.9778 58.1517 76.7382 49.1906 83.7135C45.0831 86.9118 40.7331 90.7086 36.1656 93.0729C31.9881 95.2343 28.0606 94.6908 23.6431 96.1359Z" fill="url(#paint0_linear)"/>
<path d="M253.747 104.25C248.247 103.098 237.834 100.937 226.049 98.5427C208.602 94.9988 204.049 108.413 204.049 108.413C204.049 115.245 181.299 143.586 181.299 143.586L174.514 128.359C175.557 128.52 176.622 128.448 177.634 128.149C181.519 126.986 183.439 122.596 184.062 118.586C184.991 112.547 184.142 106.368 181.619 100.804C180.462 98.2647 178.962 95.8754 178.032 93.2457C174.109 82.2108 180.904 69.4377 176.794 58.4454C175.097 53.9097 171.712 50.2306 169.372 45.993C164.122 36.4633 164.347 24.5418 158.622 15.2851C153.252 6.60695 142.669 1.46268 132.532 2.60975C126.554 3.28596 122.282 5.42482 116.712 2.8602C112.009 0.701304 106.364 -1.71305 101.522 1.68808C97.3916 4.58831 96.6891 10.3011 94.4341 14.8168C90.4741 22.7486 81.0791 27.9254 79.9741 36.7238C79.7016 38.8927 79.9741 41.1417 79.3416 43.2355C77.5366 49.1537 69.6766 50.9018 66.4566 56.1838C63.3041 61.3531 66.4891 69.1697 72.3541 70.6599C74.8541 71.2961 77.5441 70.9104 80.0416 71.5841C82.3841 72.2102 84.6566 74.4042 84.2516 76.6958L79.0566 77.6425L64.1091 79.3055L61.7966 79.4508C61.7966 79.4508 61.7966 79.4909 61.7966 79.5635L61.6716 79.5785L61.7941 79.6787C61.7941 79.8565 61.7941 80.1345 61.7941 80.5002C57.5866 82.1507 50.7691 86.5561 48.1941 98.1119C47.6042 100.749 46.4122 103.214 44.7116 105.312C40.8791 110.046 34.5191 119.29 34.8741 128.164C35.3741 140.816 35.3741 145.878 52.0691 142.334C56.2866 141.44 60.8741 139.607 65.3766 137.368C65.6391 142.642 66.3216 147.814 67.7466 151.696C72.2991 164.096 62.6891 207.875 62.6891 207.875H155.497C155.497 207.875 147.657 182.063 140.072 168.905C134.699 159.583 136.684 153.945 138.299 151.448C139.7 149.326 140.746 146.99 141.397 144.531C141.672 143.451 141.939 142.226 142.169 140.869C143.877 142.269 145.699 143.526 147.762 144.278C149.672 144.971 151.844 145.162 153.777 144.626C157.732 149.47 162.149 154.782 166.877 160.302C185.084 181.557 190.142 168.399 190.142 168.399C190.142 168.399 208.602 133.225 211.142 122.596C213.682 111.967 219.234 112.473 219.234 112.473C234.454 116.327 247.944 110.732 254.212 107.366C254.516 107.204 254.763 106.951 254.919 106.643C255.074 106.334 255.13 105.985 255.079 105.644C255.028 105.302 254.872 104.984 254.634 104.735C254.395 104.485 254.085 104.316 253.747 104.25ZM65.9666 110.609C67.2364 109.16 68.3276 107.562 69.2166 105.851H69.2641C68.8032 107.62 68.209 109.351 67.4866 111.03C66.0691 111.303 65.2141 111.446 65.2141 111.446L65.9666 110.609Z" fill="url(#paint1_linear)"/>
<path d="M100.859 3.93948C96.7766 6.80966 96.0816 12.4548 93.8591 16.9329C89.9441 24.7821 80.6566 29.9088 79.5641 38.6145C79.2941 40.7609 79.5641 42.9874 78.9391 45.0561C77.1566 50.9142 69.3841 52.6448 66.1891 57.8717C63.0716 62.9859 66.2216 70.7224 72.0191 72.1975C74.4966 72.8287 77.1491 72.448 79.6191 73.1117C82.0891 73.7754 84.4816 76.1998 83.6641 78.6216C83.0566 80.4249 80.9141 81.4517 80.5241 83.3151C80.1841 84.918 81.2741 86.4457 82.3291 87.693C83.6691 89.2708 85.0991 90.8236 86.8916 91.858C91.8216 94.7031 97.9716 92.995 103.657 92.8072C110.534 92.6026 117.277 94.7499 122.774 98.8957C124.347 100.09 125.827 101.47 126.802 103.191C129.979 108.796 126.974 115.831 127.649 122.24C128.414 129.523 133.844 135.369 139.327 140.21C141.517 142.144 143.827 144.05 146.577 145.049C149.327 146.048 152.614 145.993 154.927 144.21C157.357 142.336 158.202 139.018 158.217 135.945C158.232 132.872 157.587 129.814 157.742 126.746C157.817 125.243 158.364 123.457 159.827 123.162C160.559 123.014 161.302 123.312 161.969 123.648C166.634 125.997 171.109 130.598 176.109 129.105C179.952 127.956 181.859 123.61 182.464 119.641C183.381 113.666 182.542 107.553 180.049 102.049C178.904 99.5443 177.422 97.1726 176.502 94.5679C172.637 83.6256 179.349 70.9803 175.289 60.1082C173.612 55.6202 170.264 51.9786 167.952 47.7835C162.752 38.3515 162.984 26.5527 157.322 17.3912C152.014 8.80075 141.549 3.71157 131.529 4.84612C125.619 5.51482 121.397 7.63364 115.889 5.09657C111.239 2.96523 105.659 0.563396 100.859 3.93948Z" fill="#141720"/>
<path d="M140.753 83.2287C140.753 83.2287 157.003 78.2197 163.503 107.272L180.003 144.339C180.003 144.339 202.503 116.288 202.503 109.526C202.503 109.526 207.003 96.2522 224.253 99.7585C235.906 102.128 246.188 104.267 251.636 105.406C251.967 105.475 252.269 105.645 252.501 105.891C252.733 106.138 252.884 106.451 252.933 106.786C252.981 107.121 252.926 107.464 252.774 107.767C252.622 108.07 252.381 108.318 252.083 108.479C245.888 111.81 232.551 117.348 217.503 113.533C217.503 113.533 212.003 113.032 209.503 123.551C207.003 134.07 188.753 168.883 188.753 168.883C188.753 168.883 183.753 181.907 165.753 160.869C147.753 139.831 134.253 121.798 134.253 121.798L140.753 83.2287Z" fill="#F89D8F"/>
<path d="M140.485 86.7814L138.33 93.8917L136.2 100.924L131.985 114.832L111.985 118.589L105.467 114.424L97.4849 109.322L90.6024 104.563L80.4849 97.5508L72.2349 80.2696C72.2349 80.2696 74.5099 79.8664 81.6024 78.5741L91.4849 76.7633C98.3099 75.5111 100.89 70.4219 101.677 65.2425C102.62 59.0414 100.985 52.72 100.985 52.72H126.235C126.235 52.72 129.06 56.9776 128.617 64.3309C128.478 66.5068 128.099 68.6606 127.485 70.7525C125.265 78.4514 130.277 81.021 133.677 81.855C134.597 82.0887 135.537 82.2288 136.485 82.2732L140.485 86.7814Z" fill="#F89D8F"/>
<path opacity="0.1" d="M128.609 64.331C124.74 67.199 120.092 68.8222 115.281 68.9859C110.471 69.1496 105.724 67.846 101.669 65.2477C102.612 59.0465 100.977 52.7251 100.977 52.7251H126.227C126.227 52.7251 129.059 56.9652 128.609 64.331Z" fill="black"/>
<path d="M114.352 68.0379C127.468 68.0379 138.102 57.3855 138.102 44.245C138.102 31.1046 127.468 20.4521 114.352 20.4521C101.235 20.4521 90.6016 31.1046 90.6016 44.245C90.6016 57.3855 101.235 68.0379 114.352 68.0379Z" fill="#F89D8F"/>
<path opacity="0.1" d="M140.485 86.7815L138.33 93.8918L136.2 100.925L131.985 114.832L111.985 118.589L105.467 114.424L97.4849 109.322L90.6024 104.564L80.4849 97.5509L72.2349 80.2698C72.2349 80.2698 74.5099 79.8665 81.6024 78.5742C86.6024 92.5118 92.9274 97.7012 98.6349 99.3842C102.047 100.386 105.237 100.136 107.78 99.7599C111.048 99.236 114.389 99.4067 117.587 100.261C125.262 102.4 129.302 98.3048 131.425 93.1079C132.995 89.2635 133.515 84.813 133.675 81.8376C134.594 82.0713 135.535 82.2114 136.482 82.2559L140.485 86.7815Z" fill="black"/>
<path d="M62.4835 208C62.4835 208 71.9835 164.672 67.4835 152.4C66.196 148.893 65.521 144.305 65.2185 139.557C64.4685 127.718 65.9835 114.832 65.9835 114.832C66.1985 114.414 66.401 113.998 66.596 113.58C67.096 112.511 67.536 111.466 67.916 110.444C73.2735 96.0031 66.6085 86.3882 63.2285 82.7116C62.6864 82.1083 62.1016 81.545 61.4785 81.0261L80.6035 78.8972C85.631 93.3508 92.0785 98.6829 97.8785 100.391C101.291 101.393 104.481 101.142 107.024 100.767C110.292 100.243 113.633 100.413 116.831 101.268C124.506 103.406 128.546 99.3115 130.668 94.1147C133.303 87.663 132.978 79.5158 132.978 79.5158L143.978 82.7717C143.978 82.7717 143.008 88.8076 142.131 96.7394C141.924 98.6002 141.721 100.564 141.538 102.58C140.788 110.99 140.343 120.289 141.228 126.601C142.128 132.838 141.808 139.19 140.286 145.304C139.644 147.738 138.61 150.051 137.226 152.152C135.628 154.621 133.666 160.204 138.976 169.433C146.476 182.456 154.226 208.003 154.226 208.003L62.4835 208Z" fill="#9347B2"/>
<path d="M143.859 82.8994C143.859 82.8994 152.941 97.1751 141.024 109.447C129.106 121.719 133.859 104.438 133.859 104.438L136.859 84.4021L143.859 82.8994Z" fill="#9347B2"/>
<path opacity="0.1" d="M63.23 82.7114C63.9078 82.4966 64.6029 82.3408 65.3075 82.2456C68.5575 83.7984 70.3575 88.1087 71.335 92.6093C71.9874 95.6618 72.0211 98.8145 71.4341 101.88C70.847 104.946 69.6511 107.863 67.9175 110.456C73.275 96.0029 66.61 86.3881 63.23 82.7114Z" fill="black"/>
<path opacity="0.1" d="M141.545 102.583C136.207 102.936 129.235 102.31 129.235 102.31C130.175 106.617 128.235 109.983 126.235 112.177C125.47 113.026 124.505 113.668 123.427 114.046C122.35 114.424 121.196 114.524 120.07 114.339C108.535 112.335 90.9947 122.854 90.9947 122.854C90.9947 122.854 78.4497 133.005 65.2197 139.564C64.4697 127.725 65.9847 114.84 65.9847 114.84C66.1997 114.421 66.4022 114.006 66.5972 113.587C71.9422 112.586 91.3622 108.628 95.2347 102.818C95.8097 101.954 96.7347 101.145 97.8847 100.394C101.192 98.2497 106.485 96.5692 111.517 95.342C117.781 93.8027 124.267 93.3906 130.675 94.1248C133.425 94.4405 136.147 94.9722 138.815 95.7151C139.98 96.0382 141.105 96.3863 142.137 96.7495C144.967 97.7513 147.112 98.8708 147.485 100.063C147.987 101.666 145.135 102.347 141.545 102.583Z" fill="black"/>
<path opacity="0.1" d="M136.199 100.924C132.352 100.859 128.984 100.556 128.984 100.556C129.924 104.864 127.984 108.23 125.984 110.424C125.219 111.273 124.254 111.915 123.177 112.293C122.1 112.671 120.945 112.771 119.819 112.585C115.472 111.834 110.269 112.858 105.477 114.424L97.4841 109.322L90.6016 104.564C92.6016 103.489 94.1491 102.309 94.9841 101.057C97.2041 97.7212 104.484 95.2392 111.267 93.5812C120.168 91.3826 129.481 91.4894 138.329 93.8918L138.564 93.9544C142.912 95.1691 146.727 96.6743 147.234 98.3022C147.964 100.644 141.609 101.02 136.199 100.924Z" fill="black"/>
<path d="M65.0563 80.9885C65.0563 80.9885 51.9788 82.3209 48.1663 99.3041C47.5769 101.944 46.3877 104.412 44.6913 106.517C40.9013 111.208 34.6338 120.342 34.9838 129.11C35.4838 141.633 35.4838 146.642 51.9838 143.136C68.4838 139.629 90.7338 121.597 90.7338 121.597C90.7338 121.597 108.274 111.095 119.809 113.081C120.935 113.267 122.089 113.166 123.166 112.788C124.243 112.411 125.209 111.768 125.974 110.92C127.974 108.726 129.926 105.36 128.974 101.052C128.974 101.052 148.474 102.805 147.224 98.7981C146.724 97.1702 142.901 95.665 138.554 94.4528C129.637 91.99 120.238 91.8606 111.256 94.0771C104.461 95.7376 97.1938 98.2196 94.9738 101.553C90.4738 108.315 64.9738 112.573 64.9738 112.573L65.7238 111.729C68.1456 108.989 69.8921 105.718 70.823 102.179C71.7539 98.6403 71.8432 94.932 71.0838 91.3522C70.1088 86.8516 68.3163 82.5413 65.0563 80.9885Z" fill="#F89D8F"/>
<path d="M61.61 80.8957C61.61 80.8957 60.86 111.2 72.11 106.692C83.36 102.184 74.61 80.8957 74.61 80.8957L69.61 80.3948L61.61 80.8957Z" fill="#9347B2"/>
<path opacity="0.1" d="M95.2777 44.8633C102.695 44.0385 110.01 42.4634 117.11 40.1624C118.935 39.5713 120.918 38.7849 121.77 37.0668C121.99 36.6235 122.155 36.0975 122.588 35.8546C122.955 35.6467 123.41 35.7118 123.823 35.807C126.26 36.3856 128.353 37.9158 130.675 38.855C132.998 39.7942 135.955 40.0146 137.74 38.2514C139.848 36.1677 139.15 32.5862 137.763 29.969C132.61 20.2314 120.54 15.7859 109.56 16.5924C108.018 16.7051 106.45 16.9129 105.06 17.5942C102.12 19.0092 100.51 22.1574 98.9177 25.01C95.8202 30.5425 79.4427 46.619 95.2777 44.8633Z" fill="black"/>
<path d="M95.2777 44.1119C102.695 43.287 110.01 41.712 117.11 39.4109C118.935 38.8198 120.918 38.0334 121.77 36.3153C121.99 35.872 122.155 35.3461 122.588 35.1031C122.955 34.8953 123.41 34.9604 123.823 35.0555C126.26 35.6341 128.353 37.1644 130.675 38.1035C132.998 39.0427 135.955 39.2631 137.74 37.5C139.848 35.4162 139.15 31.8347 137.763 29.2175C132.61 19.48 120.54 15.0344 109.56 15.8409C108.018 15.9536 106.45 16.1615 105.06 16.8427C102.12 18.2578 100.51 21.4059 98.9177 24.2586C95.8202 29.7911 79.4427 45.8675 95.2777 44.1119Z" fill="#141720"/>
<path d="M256.42 70.6274H205.67C205.057 70.6274 204.469 70.8715 204.035 71.306C203.602 71.7404 203.358 72.3297 203.358 72.9441V102.748C203.358 103.362 203.602 103.952 204.035 104.386C204.469 104.82 205.057 105.065 205.67 105.065H256.42C257.034 105.065 257.622 104.82 258.056 104.386C258.489 103.952 258.733 103.362 258.733 102.748V72.9441C258.733 72.3297 258.489 71.7404 258.056 71.306C257.622 70.8715 257.034 70.6274 256.42 70.6274Z" fill="url(#paint2_linear)"/>
<path d="M255.104 71.0332H206.977C205.332 71.0332 203.999 72.3687 203.999 74.0161V101.678C203.999 103.326 205.332 104.661 206.977 104.661H255.104C256.748 104.661 258.081 103.326 258.081 101.678V74.0161C258.081 72.3687 256.748 71.0332 255.104 71.0332Z" fill="#B247A7"/>
<path d="M258.081 76.9187H203.999V83.0848H258.081V76.9187Z" fill="#FF8000"/>
<path d="M258.081 76.9187H203.999V83.0848H258.081V76.9187Z" fill="#9347B2"/>
<path d="M252.952 87.6606H209.127V90.651H252.952V87.6606Z" fill="#D6D6E3"/>
<path d="M212.765 102.419C215.134 102.419 217.055 100.495 217.055 98.1217C217.055 95.7481 215.134 93.824 212.765 93.824C210.395 93.824 208.475 95.7481 208.475 98.1217C208.475 100.495 210.395 102.419 212.765 102.419Z" fill="#FF8000"/>
<path d="M212.765 102.419C215.134 102.419 217.055 100.495 217.055 98.1217C217.055 95.7481 215.134 93.824 212.765 93.824C210.395 93.824 208.475 95.7481 208.475 98.1217C208.475 100.495 210.395 102.419 212.765 102.419Z" fill="#9347B2"/>
<path opacity="0.05" d="M63.3594 112.703C63.3594 112.703 58.6094 115.23 57.8219 118.318C57.0344 121.406 56.1094 121.97 56.1094 121.97" fill="black"/>
<path opacity="0.05" d="M179.858 144.26C179.858 144.26 177.608 152.024 179.858 153.026V144.26Z" fill="black"/>
<path opacity="0.05" d="M67.6094 153.026C67.6094 153.026 87.1094 157.284 101.609 148.518H107.859C107.859 148.518 126.609 158.035 135.609 155.28" fill="black"/>
<path d="M206.035 137.966L202.253 146.645L219.135 154.027L222.917 145.348L206.035 137.966Z" fill="#8ED16F"/>
<path d="M216.086 147.662C216.515 146.678 215.271 145.185 213.308 144.327C211.346 143.468 209.407 143.57 208.979 144.554C208.55 145.538 209.794 147.031 211.756 147.889C213.719 148.747 215.658 148.646 216.086 147.662Z" fill="#8ED16F"/>
<path opacity="0.1" d="M216.086 147.662C216.515 146.678 215.271 145.185 213.308 144.327C211.346 143.468 209.407 143.57 208.979 144.554C208.55 145.538 209.794 147.031 211.756 147.889C213.719 148.747 215.658 148.646 216.086 147.662Z" fill="black"/>
<path d="M230.791 107.045L227.009 115.724L243.891 123.106L247.673 114.427L230.791 107.045Z" fill="#8ED16F"/>
<path d="M240.845 116.741C241.274 115.757 240.03 114.264 238.067 113.406C236.105 112.548 234.166 112.65 233.737 113.633C233.309 114.617 234.552 116.11 236.515 116.968C238.478 117.827 240.416 117.725 240.845 116.741Z" fill="#8ED16F"/>
<path opacity="0.1" d="M240.845 116.741C241.274 115.757 240.03 114.264 238.067 113.406C236.105 112.548 234.166 112.65 233.737 113.633C233.309 114.617 234.552 116.11 236.515 116.968C238.478 117.827 240.416 117.725 240.845 116.741Z" fill="black"/>
<path d="M260.779 138.457L251.503 140.278L255.047 158.387L264.323 156.565L260.779 138.457Z" fill="#8ED16F"/>
<path d="M258.539 152.256C259.59 152.05 260.109 150.175 259.697 148.07C259.285 145.965 258.099 144.426 257.047 144.632C255.996 144.838 255.477 146.713 255.889 148.818C256.301 150.923 257.488 152.462 258.539 152.256Z" fill="#8ED16F"/>
<path opacity="0.1" d="M258.539 152.256C259.59 152.05 260.109 150.175 259.697 148.07C259.285 145.965 258.099 144.426 257.047 144.632C255.996 144.838 255.477 146.713 255.889 148.818C256.301 150.923 257.488 152.462 258.539 152.256Z" fill="black"/>
<path d="M227.406 180.45L223.625 189.129L240.507 196.511L244.288 187.832L227.406 180.45Z" fill="#8ED16F"/>
<path d="M237.465 190.146C237.893 189.163 236.65 187.669 234.687 186.811C232.724 185.953 230.786 186.055 230.357 187.039C229.929 188.022 231.172 189.516 233.135 190.374C235.097 191.232 237.036 191.13 237.465 190.146Z" fill="#8ED16F"/>
<path opacity="0.1" d="M237.465 190.146C237.893 189.163 236.65 187.669 234.687 186.811C232.724 185.953 230.786 186.055 230.357 187.039C229.929 188.022 231.172 189.516 233.135 190.374C235.097 191.232 237.036 191.13 237.465 190.146Z" fill="black"/>
<path d="M185.694 172.248L181.913 180.927L198.795 188.309L202.576 179.63L185.694 172.248Z" fill="#8ED16F"/>
<path d="M195.749 181.945C196.177 180.961 194.934 179.468 192.971 178.609C191.008 177.751 189.07 177.853 188.641 178.837C188.213 179.82 189.456 181.314 191.419 182.172C193.382 183.03 195.32 182.928 195.749 181.945Z" fill="#8ED16F"/>
<path opacity="0.1" d="M195.749 181.945C196.177 180.961 194.934 179.468 192.971 178.609C191.008 177.751 189.07 177.853 188.641 178.837C188.213 179.82 189.456 181.314 191.419 182.172C193.382 183.03 195.32 182.928 195.749 181.945Z" fill="black"/>
<path opacity="0.3" d="M34.6669 42.403C42.7673 42.403 49.3339 35.8209 49.3339 27.7015C49.3339 19.5821 42.7673 13 34.6669 13C26.5666 13 20 19.5821 20 27.7015C20 35.8209 26.5666 42.403 34.6669 42.403Z" fill="#A04DAF"/>
</g>
<defs>
<linearGradient id="paint0_linear" x1="149.159" y1="-17.9133" x2="157.086" y2="327.838" gradientUnits="userSpaceOnUse">
<stop stop-color="#FD749B"/>
<stop offset="1" stop-color="#281AC8"/>
</linearGradient>
<linearGradient id="paint1_linear" x1="144.967" y1="207.875" x2="144.967" y2="3.56209e-05" gradientUnits="userSpaceOnUse">
<stop stop-color="#808080" stop-opacity="0.25"/>
<stop offset="0.54" stop-color="#808080" stop-opacity="0.12"/>
<stop offset="1" stop-color="#808080" stop-opacity="0.1"/>
</linearGradient>
<linearGradient id="paint2_linear" x1="54566.1" y1="15714" x2="54566.1" y2="10978.6" gradientUnits="userSpaceOnUse">
<stop stop-color="#808080" stop-opacity="0.25"/>
<stop offset="0.54" stop-color="#808080" stop-opacity="0.12"/>
<stop offset="1" stop-color="#808080" stop-opacity="0.1"/>
</linearGradient>
<clipPath id="clip0">
<rect width="271" height="208" fill="white" transform="translate(0.109375)"/>
</clipPath>
</defs>
</svg>
