<svg width="272" height="213" viewBox="0 0 272 213" fill="none" xmlns="http://www.w3.org/2000/svg">
<g clip-path="url(#clip0)">
<path opacity="0.1" d="M172.039 28.4602C157.631 27.9596 143.907 23.2844 130.801 18.1847C117.694 13.0849 104.713 7.40862 90.6496 4.69888C81.6026 2.95616 71.259 2.70982 63.9676 7.58158C56.9553 12.2699 54.6883 20.365 53.47 27.8732C52.5518 33.5232 52.0144 39.4721 54.5266 44.7605C56.2692 48.4294 59.3658 51.5191 61.5075 55.036C68.9581 67.277 63.691 82.3693 55.617 94.3194C51.8291 99.9118 47.4334 105.261 44.5143 111.217C41.5951 117.174 40.2386 124.024 42.7951 130.109C45.3308 136.137 51.37 140.676 57.9257 143.865C71.2172 150.338 86.8826 152.191 102.146 153.242C135.95 155.564 169.934 154.552 203.829 153.551C216.372 153.179 228.97 152.801 241.309 150.852C248.162 149.769 255.237 148.053 260.212 143.907C266.528 138.645 268.093 129.732 263.864 123.133C256.766 112.064 237.138 109.315 232.178 97.4353C229.447 90.8968 232.251 83.6114 236.219 77.5473C244.734 64.5385 259.004 53.1256 259.755 38.2561C260.277 28.0356 253.411 17.8152 242.799 12.9827C231.68 7.91702 216.265 8.55383 208.061 16.9399C199.606 25.5827 184.762 28.9057 172.039 28.4602Z" fill="url(#paint0_linear)"/>
<path d="M131.368 196.482C131.368 196.482 119.368 175.121 101.284 168.965C93.695 166.382 87.0715 161.523 82.5427 154.882C80.3997 151.729 78.5485 148.385 77.0122 144.892" stroke="#535461" stroke-width="2" stroke-miterlimit="10"/>
<path d="M65.643 140.94C67.7013 142.948 77.2962 145.026 77.2962 145.026C77.2962 145.026 74.9483 135.455 72.8822 133.445C71.8861 132.517 70.5678 132.017 69.2095 132.053C67.8513 132.089 66.5609 132.658 65.6148 133.637C64.6686 134.617 64.1417 135.93 64.147 137.294C64.1523 138.659 64.6893 139.968 65.643 140.94Z" fill="#FF8000"/>
<path d="M71.0693 158.26C73.8867 158.821 83.0694 155.328 83.0694 155.328C83.0694 155.328 75.9137 148.577 73.0988 148.016C72.4237 147.868 71.7259 147.857 71.0463 147.983C70.3667 148.109 69.7189 148.37 69.1408 148.75C68.5627 149.13 68.0659 149.623 67.6794 150.198C67.293 150.774 67.0246 151.421 66.89 152.102C66.7555 152.783 66.7574 153.484 66.8957 154.164C67.034 154.844 67.3059 155.49 67.6955 156.063C68.0851 156.637 68.5846 157.126 69.1648 157.504C69.745 157.881 70.3942 158.138 71.0745 158.26H71.0693Z" fill="#FF8000"/>
<path d="M90.8341 176.995C93.5472 176.052 99.7038 168.381 99.7038 168.381C99.7038 168.381 90.1376 166.182 87.4245 167.126C86.162 167.608 85.136 168.565 84.5637 169.795C83.9915 171.024 83.918 172.429 84.3588 173.711C84.7996 174.994 85.72 176.054 86.9253 176.667C88.1305 177.28 89.5259 177.398 90.8159 176.995H90.8341Z" fill="#FF8000"/>
<path d="M108.963 187.8C111.796 187.331 119.163 180.819 119.163 180.819C119.163 180.819 110.103 177.027 107.27 177.496C105.932 177.745 104.745 178.512 103.963 179.631C103.181 180.75 102.868 182.133 103.089 183.481C103.311 184.83 104.05 186.038 105.148 186.846C106.247 187.653 107.616 187.996 108.963 187.8Z" fill="#FF8000"/>
<path d="M91.0654 147.848C91.0654 150.731 85.8714 159.099 85.8714 159.099C85.8714 159.099 80.6696 150.736 80.667 147.854C80.667 146.468 81.2148 145.14 82.1898 144.16C83.1648 143.181 84.4873 142.631 85.8662 142.631C87.2451 142.631 88.5675 143.181 89.5426 144.16C90.5176 145.14 91.0654 146.468 91.0654 147.854V147.848Z" fill="#FF8000"/>
<path d="M112.109 160.747C111.251 163.499 103.803 169.92 103.803 169.92C103.803 169.92 101.33 160.378 102.188 157.626C102.369 156.945 102.685 156.308 103.118 155.753C103.55 155.197 104.09 154.736 104.704 154.396C105.319 154.056 105.996 153.845 106.694 153.774C107.392 153.704 108.097 153.777 108.767 153.987C109.437 154.198 110.057 154.543 110.59 155.001C111.124 155.459 111.559 156.021 111.871 156.652C112.182 157.284 112.363 157.972 112.403 158.676C112.443 159.38 112.34 160.084 112.101 160.747H112.109Z" fill="#FF8000"/>
<path d="M130.851 176.104C130.471 178.961 124.21 186.555 124.21 186.555C124.21 186.555 120.166 177.572 120.557 174.712C120.648 174.033 120.872 173.378 121.215 172.785C121.557 172.192 122.013 171.673 122.556 171.257C123.098 170.842 123.717 170.537 124.377 170.361C125.037 170.186 125.725 170.142 126.401 170.234C127.077 170.325 127.729 170.55 128.319 170.894C128.91 171.238 129.426 171.696 129.84 172.241C130.254 172.786 130.557 173.408 130.732 174.071C130.907 174.734 130.95 175.425 130.859 176.104H130.851Z" fill="#FF8000"/>
<path d="M65.643 140.94C67.7013 142.948 77.2962 145.026 77.2962 145.026C77.2962 145.026 74.9483 135.455 72.8822 133.445C71.8861 132.517 70.5678 132.017 69.2095 132.053C67.8513 132.089 66.5609 132.658 65.6148 133.637C64.6686 134.617 64.1417 135.93 64.147 137.294C64.1523 138.659 64.6893 139.968 65.643 140.94Z" fill="#9347B2"/>
<path d="M71.0693 158.26C73.8867 158.821 83.0694 155.328 83.0694 155.328C83.0694 155.328 75.9137 148.577 73.0988 148.016C72.4237 147.868 71.7259 147.857 71.0463 147.983C70.3667 148.109 69.7189 148.37 69.1408 148.75C68.5627 149.13 68.0659 149.623 67.6794 150.198C67.293 150.774 67.0246 151.421 66.89 152.102C66.7555 152.783 66.7574 153.484 66.8957 154.164C67.034 154.844 67.3059 155.49 67.6955 156.063C68.0851 156.637 68.5846 157.126 69.1648 157.504C69.745 157.881 70.3942 158.138 71.0745 158.26H71.0693Z" fill="#9347B2"/>
<path d="M90.8341 176.995C93.5472 176.052 99.7038 168.381 99.7038 168.381C99.7038 168.381 90.1376 166.182 87.4245 167.126C86.162 167.608 85.136 168.565 84.5637 169.795C83.9915 171.024 83.918 172.429 84.3588 173.711C84.7996 174.994 85.72 176.054 86.9253 176.667C88.1305 177.28 89.5259 177.398 90.8159 176.995H90.8341Z" fill="#9347B2"/>
<path d="M108.963 187.8C111.796 187.331 119.163 180.819 119.163 180.819C119.163 180.819 110.103 177.027 107.27 177.496C105.932 177.745 104.745 178.512 103.963 179.631C103.181 180.75 102.868 182.133 103.089 183.481C103.311 184.83 104.05 186.038 105.148 186.846C106.247 187.653 107.616 187.996 108.963 187.8Z" fill="#9347B2"/>
<path d="M91.0654 147.848C91.0654 150.731 85.8714 159.099 85.8714 159.099C85.8714 159.099 80.6696 150.736 80.667 147.854C80.667 146.468 81.2148 145.14 82.1898 144.16C83.1648 143.181 84.4873 142.631 85.8662 142.631C87.2451 142.631 88.5675 143.181 89.5426 144.16C90.5176 145.14 91.0654 146.468 91.0654 147.854V147.848Z" fill="#9347B2"/>
<path d="M112.109 160.747C111.251 163.499 103.803 169.92 103.803 169.92C103.803 169.92 101.33 160.378 102.188 157.626C102.369 156.945 102.685 156.308 103.118 155.753C103.55 155.197 104.09 154.736 104.704 154.396C105.319 154.056 105.996 153.845 106.694 153.774C107.392 153.704 108.097 153.777 108.767 153.987C109.437 154.198 110.057 154.543 110.59 155.001C111.124 155.459 111.559 156.021 111.871 156.652C112.182 157.284 112.363 157.972 112.403 158.676C112.443 159.38 112.34 160.084 112.101 160.747H112.109Z" fill="#9347B2"/>
<path opacity="0.25" d="M130.851 176.104C130.471 178.961 124.21 186.555 124.21 186.555C124.21 186.555 120.166 177.572 120.557 174.712C120.648 174.033 120.872 173.378 121.215 172.785C121.557 172.192 122.013 171.673 122.556 171.257C123.098 170.842 123.717 170.537 124.377 170.361C125.037 170.186 125.725 170.142 126.401 170.234C127.077 170.325 127.729 170.55 128.319 170.894C128.91 171.238 129.426 171.696 129.84 172.241C130.254 172.786 130.557 173.408 130.732 174.071C130.907 174.734 130.95 175.425 130.859 176.104H130.851Z" fill="black"/>
<path d="M130.677 196.058C130.677 196.058 128.329 171.641 114.275 158.653C108.38 153.202 104.284 146.074 102.823 138.149C102.135 134.393 101.792 130.582 101.798 126.763" stroke="#535461" stroke-width="2" stroke-miterlimit="10"/>
<path d="M92.995 118.526C94.0672 121.202 102 127.006 102 127.006C102 127.006 103.709 117.297 102.637 114.621C102.382 113.985 102.004 113.405 101.526 112.915C101.047 112.425 100.478 112.034 99.849 111.765C99.2204 111.496 98.5452 111.354 97.862 111.347C97.1788 111.341 96.501 111.469 95.8672 111.726C95.2334 111.982 94.6561 112.361 94.1682 112.842C93.6804 113.322 93.2915 113.895 93.0238 114.526C92.7561 115.158 92.6149 115.836 92.6082 116.522C92.6014 117.208 92.7293 117.889 92.9845 118.526H92.995Z" fill="#602678"/>
<path d="M90.9694 136.569C93.3173 138.228 103.118 138.771 103.118 138.771C103.118 138.771 99.3017 129.687 96.9538 128.026C96.3963 127.617 95.7632 127.324 95.0917 127.163C94.4202 127.003 93.7235 126.979 93.0425 127.091C92.3614 127.204 91.7095 127.452 91.1248 127.821C90.5402 128.189 90.0344 128.671 89.6371 129.238C89.2398 129.805 88.9588 130.446 88.8107 131.123C88.6625 131.801 88.65 132.501 88.7741 133.183C88.8981 133.865 89.1561 134.516 89.533 135.097C89.9099 135.678 90.3982 136.177 90.9694 136.567V136.569Z" fill="#602678"/>
<path d="M101.477 161.748C104.347 161.989 113.07 157.487 113.07 157.487C113.07 157.487 105.21 151.575 102.348 151.342C101.66 151.268 100.963 151.333 100.3 151.534C99.6372 151.734 99.0206 152.065 98.4867 152.508C97.9528 152.951 97.5124 153.497 97.1913 154.113C96.8703 154.73 96.675 155.404 96.6169 156.097C96.5589 156.791 96.6393 157.488 96.8534 158.15C97.0675 158.812 97.4109 159.423 97.8637 159.95C98.3164 160.476 98.8692 160.906 99.4897 161.215C100.11 161.524 100.786 161.705 101.477 161.748Z" fill="#602678"/>
<path d="M113.695 179.002C116.476 179.726 125.839 176.77 125.839 176.77C125.839 176.77 119.085 169.615 116.307 168.892C114.981 168.569 113.581 168.783 112.411 169.488C111.24 170.192 110.392 171.331 110.05 172.658C109.707 173.985 109.898 175.393 110.58 176.58C111.263 177.767 112.383 178.637 113.698 179.002H113.695Z" fill="#602678"/>
<path d="M113.45 135.188C112.287 137.827 104.163 143.359 104.163 143.359C104.163 143.359 102.781 133.597 103.942 130.961C104.504 129.701 105.54 128.716 106.824 128.222C108.107 127.727 109.533 127.764 110.789 128.322C112.046 128.881 113.032 129.917 113.53 131.203C114.029 132.49 114 133.923 113.45 135.188Z" fill="#602678"/>
<path d="M127.486 155.548C125.592 157.715 116.192 160.553 116.192 160.553C116.192 160.553 117.781 150.823 119.675 148.658C120.125 148.143 120.672 147.722 121.285 147.419C121.897 147.116 122.563 146.937 123.244 146.893C123.925 146.849 124.608 146.939 125.254 147.16C125.9 147.381 126.497 147.727 127.009 148.18C127.522 148.632 127.941 149.182 128.243 149.797C128.544 150.412 128.722 151.081 128.767 151.765C128.811 152.449 128.72 153.135 128.501 153.784C128.281 154.433 127.936 155.033 127.486 155.548Z" fill="#602678"/>
<path d="M138.427 177.218C136.914 179.676 128.138 184.071 128.138 184.071C128.138 184.071 128.065 174.212 129.567 171.754C130.289 170.572 131.448 169.727 132.79 169.404C134.132 169.081 135.547 169.307 136.723 170.032C137.899 170.757 138.741 171.921 139.062 173.27C139.383 174.618 139.159 176.039 138.437 177.22L138.427 177.218Z" fill="#602678"/>
<path opacity="0.1" d="M156.075 213C194.804 213 226.2 210.732 226.2 207.934C226.2 205.137 194.804 202.869 156.075 202.869C117.346 202.869 85.9497 205.137 85.9497 207.934C85.9497 210.732 117.346 213 156.075 213Z" fill="url(#paint1_linear)"/>
<path d="M255.271 66.5248C255.475 65.9666 253.949 62.869 253.949 62.717C253.949 62.565 252.37 60.838 252.37 59.8736C252.37 58.9092 250.283 56.8285 250.283 56.8285C250.283 56.8285 247.484 55.6597 247.179 53.1203C246.874 50.5809 243.827 50.5311 243.819 50.5311C243.819 50.5311 243.832 50.2978 243.837 49.9493C243.837 49.1631 243.814 47.748 243.461 46.9775C242.94 45.8611 241.729 45.5047 241.729 45.5047C241.729 45.5047 241.424 43.5235 240.814 42.9129C240.472 42.5548 240.227 42.115 240.103 41.6353C239.978 41.1555 239.978 40.6517 240.101 40.1717C240.407 39.2099 239.694 36.7649 238.218 36.4163C236.741 36.0678 235.061 35.5017 235.061 35.5017C235.061 35.5017 234.897 35.5332 234.654 35.5672L234.451 35.5017C234.097 35.5678 233.74 35.6125 233.381 35.6354C233.069 35.6441 232.764 35.5431 232.518 35.3497C231.996 34.7915 227.887 33.7249 227.123 33.7249C226.359 33.7249 224.17 32.7081 224.17 32.7081C224.17 32.7081 222.644 31.542 221.984 31.0336C221.368 30.5645 220.233 28.6593 220.069 28.3788L220.048 28.3422H220.035C219.879 27.9814 219.746 27.6112 219.636 27.2336C219.612 27.155 219.594 27.0764 219.573 26.9978C220.318 26.2125 220.954 25.3312 221.467 24.3771C221.519 24.2776 221.566 24.1753 221.616 24.0758C221.728 24.0754 221.84 24.0578 221.947 24.0234C221.992 24.0082 222.037 23.9907 222.08 23.9709C222.596 23.698 222.984 23.2319 223.16 22.6737C223.197 22.5637 223.228 22.451 223.257 22.3383L223.28 22.2256C223.299 22.1496 223.314 22.071 223.33 21.9924C223.346 21.9137 223.343 21.9059 223.351 21.8613C223.359 21.8168 223.374 21.7093 223.385 21.6333C223.395 21.5573 223.385 21.5469 223.403 21.5049C223.416 21.408 223.426 21.3136 223.439 21.2167C223.481 20.8576 223.523 20.4986 223.599 20.1474C223.597 20.1423 223.597 20.1369 223.599 20.1317C223.901 18.7533 224.728 17.5897 225.312 16.3161C225.396 16.1326 225.474 15.9466 225.547 15.7605C225.62 15.5744 225.688 15.3517 225.748 15.142C225.766 15.0791 225.779 15.0162 225.798 14.9533C225.836 14.7996 225.87 14.645 225.899 14.4895C225.912 14.424 225.926 14.3585 225.936 14.2903C225.973 14.0807 226.001 13.8684 226.017 13.6561C226.122 12.4426 225.943 11.2213 225.495 10.0894C225.114 9.13553 224.546 8.27596 224.159 7.32467C223.575 5.87808 223.421 4.2428 222.706 2.86959C221.509 0.560808 218.686 -0.594892 216.367 0.272538C215.261 0.686599 214.301 1.49113 213.177 1.84492C211.674 2.32712 210.064 1.96547 208.507 1.74796C206.95 1.53044 205.231 1.5121 203.978 2.53415C202.536 3.71081 202.152 5.92263 200.79 7.21198C200.222 7.75445 199.515 8.10038 198.915 8.60092C198.493 8.94095 198.168 9.38658 197.973 9.89289C197.973 9.92958 197.95 9.96627 197.939 10.003C197.929 10.0396 197.916 10.0894 197.905 10.134C197.895 10.1785 197.887 10.2362 197.879 10.286C197.871 10.3358 197.879 10.3567 197.879 10.3908C197.872 10.478 197.872 10.5657 197.879 10.6529C197.888 10.741 197.902 10.8285 197.921 10.9149C197.925 10.938 197.931 10.9608 197.939 10.9831C197.956 11.0558 197.977 11.1276 198.002 11.198C198.002 11.198 198.002 11.2242 198.002 11.2373C198.03 11.3159 198.062 11.3919 198.093 11.4705L198.143 11.5832C198.143 11.6146 198.171 11.6461 198.184 11.6802C198.383 12.0554 198.541 12.4507 198.657 12.8594C198.721 13.1201 198.705 13.3946 198.61 13.6456C198.473 13.929 198.281 14.1821 198.046 14.3899C197.033 15.4478 196.25 16.7063 195.748 18.085C195.69 18.2422 195.636 18.3995 195.583 18.5593C195.583 18.5593 195.583 18.5593 195.583 18.5724L195.651 18.5908C195.798 18.6331 195.947 18.6655 196.097 18.6877C196.183 18.6877 196.27 18.7087 196.358 18.7139C196.708 18.7342 197.059 18.7077 197.402 18.6353C197.49 18.617 197.576 18.596 197.663 18.5724C198.017 18.4765 198.361 18.3493 198.693 18.1924C198.693 18.2973 198.693 18.3995 198.693 18.5043C198.693 18.562 198.693 18.6196 198.693 18.6773C198.696 20.9233 199.322 23.124 200.502 25.0319C201.682 26.9398 203.368 28.4792 205.371 29.4769C205.387 29.5896 205.4 29.697 205.416 29.8071C205.431 29.9172 205.439 29.9932 205.45 30.0849L205.311 29.9512C205.311 29.9512 204.396 29.4952 203.53 30.816C202.664 32.1368 201.036 32.7448 201.036 32.7448C201.036 32.7448 191.772 34.2176 191.417 35.4362L187.089 35.6983C187.089 35.6983 185.563 35.9001 185.412 39.1051C185.261 42.3101 184.444 42.6089 184.444 42.6089C184.444 42.6089 182.662 45.7537 182.816 47.3811C182.97 49.0085 181.442 49.8183 181.442 49.8183L181.238 52.701C181.238 52.701 179.558 52.4389 179.099 54.428C178.64 56.417 177.828 57.3107 177.828 57.3107C177.828 57.3107 175.027 59.6483 174.875 61.6268L173.146 62.6934C173.146 62.6934 169.123 61.7788 168.207 60.154L167.926 59.892C167.916 59.8798 167.908 59.8667 167.902 59.8527C167.902 59.8588 167.902 59.8649 167.902 59.871C167.302 59.3023 166.024 58.1073 166.22 58.3825C166.337 58.6381 166.367 58.9259 166.303 59.2001L166.003 58.8673L165.202 57.9737C165.202 57.9737 159.22 51.0709 155.404 50.5861L155.114 50.0122C155.036 49.857 154.899 49.7395 154.734 49.6855C154.569 49.6315 154.39 49.6453 154.235 49.7239L148.478 52.6066C148.401 52.6448 148.332 52.6978 148.276 52.7627C148.22 52.8275 148.177 52.9029 148.15 52.9845C148.123 53.0661 148.112 53.1523 148.118 53.2381C148.124 53.3239 148.147 53.4077 148.185 53.4845L148.83 54.7555H148.817C148.809 54.7591 148.803 54.7642 148.797 54.7704C148.792 54.7767 148.788 54.7839 148.786 54.7918C148.783 54.7997 148.782 54.8079 148.783 54.8161C148.784 54.8243 148.787 54.8322 148.791 54.8394L149.018 55.2875C149.025 55.3024 149.038 55.3138 149.053 55.3192C149.069 55.3246 149.086 55.3236 149.101 55.3164L149.338 55.7854C149.322 55.7939 149.309 55.8085 149.304 55.8262C149.298 55.8438 149.299 55.8631 149.307 55.8798L149.738 56.7289C149.741 56.7373 149.747 56.7449 149.754 56.7511C149.761 56.7574 149.769 56.7621 149.778 56.765C149.787 56.768 149.796 56.7691 149.805 56.7683C149.814 56.7675 149.823 56.7648 149.832 56.7603L150.006 57.1036C149.991 57.112 149.98 57.1259 149.974 57.1424C149.969 57.159 149.97 57.177 149.978 57.1927L150.416 58.0575C150.419 58.0656 150.425 58.0728 150.431 58.0788C150.438 58.0847 150.445 58.0891 150.454 58.0918C150.462 58.0946 150.471 58.0955 150.48 58.0945C150.489 58.0936 150.497 58.0908 150.505 58.0864L154.679 66.3702C154.757 66.5253 154.894 66.6429 155.059 66.6974C155.223 66.7519 155.403 66.7388 155.558 66.6611L159.977 64.4414L160.133 64.5567L161.438 66.2418C161.216 66.7659 161.031 67.29 160.874 67.7591C160.871 67.7742 160.866 67.7891 160.861 67.8037C160.827 67.9033 160.796 68.0028 160.767 68.0972L160.736 68.1968C160.705 68.2937 160.676 68.3881 160.65 68.4772L160.603 68.6449C160.603 68.6763 160.582 68.7104 160.574 68.7419C160.431 69.2503 160.339 69.6434 160.29 69.8609L159.953 69.7561L160.282 69.8976C160.282 69.9159 160.282 69.9369 160.282 69.95C160.266 70.0181 160.261 70.0574 160.261 70.0574C160.36 70.1046 160.465 70.1491 160.574 70.1937C162.356 70.9799 171.254 74.8951 171.711 75.49C172.22 76.1504 175.58 78.0792 178.635 76.4544C181.689 74.8296 182.349 72.3426 182.349 72.3426C182.349 72.3426 185.302 68.2282 185.404 67.6255C185.506 67.0227 187.796 66.3152 187.796 66.3152C187.796 66.3152 188 73.1288 186.829 75.6079C185.657 78.0871 183.468 89.1121 183.468 89.1121C183.611 89.0837 183.757 89.0749 183.902 89.0859L183.774 89.7227C183.951 89.6889 184.134 89.6889 184.311 89.7227C184.149 90.9727 183.215 96.7984 183.215 96.7984C183.215 96.7984 182.91 99.44 182.399 100.352C181.888 101.264 181.841 106.039 181.841 106.039L181.027 109.493C181.027 109.493 181.134 109.731 181.335 110.088V110.101C181.335 110.101 182.208 112.05 183.682 113.143C183.615 113.683 183.477 114.212 183.273 114.716C182.751 115.73 182.866 117.153 182.866 117.153C182.866 117.153 182.002 121.06 182.102 122.179C182.201 123.298 181.522 126.037 181.522 126.037L180.607 134.871C180.607 134.871 179.996 142.536 180.301 144.62C180.607 146.703 180.098 149.544 180.098 149.544C180.098 149.544 180.708 155.587 180.555 156.245C180.401 156.903 179.639 159.749 180.098 161.324C180.557 162.899 180.301 167.212 180.301 167.212C180.301 167.212 180.607 172.902 180.961 174.728C181.316 176.555 180.86 178.892 180.86 178.892C180.86 178.892 180.502 182.802 180.338 182.802C180.174 182.802 178.861 185.491 181.559 188.133C184.256 190.774 182.592 190.36 182.592 190.36C182.592 190.36 180.453 189.294 180.708 191.477C180.948 193.555 181.285 193.012 181.316 192.955L180.795 194.624C180.795 194.624 180.928 194.64 181.152 194.674L180.857 195.03C180.548 195.418 180.204 195.776 179.829 196.1C179.219 196.555 179.167 197.57 179.167 197.57C179.167 197.57 175.402 201.684 171.891 203.765C170.044 204.86 168.447 205.788 167.753 206.553C167.127 207.242 167.232 207.801 168.536 208.233C171.286 209.148 176.12 209.604 179.579 208.437C181.643 207.746 183.499 206.541 184.974 204.934C184.974 204.934 187.165 203.815 189.302 204.221C191.438 204.627 195.714 201.836 195.714 201.836L195.636 201.115L195.409 199.042C195.409 199.042 194.887 198.432 195.051 197.774C195.122 197.475 195.015 196.705 194.876 195.94C194.84 195.738 194.801 195.539 194.762 195.35L195.153 195.277C195.153 195.277 194.647 192.687 195.563 192.179C196.478 191.671 196.223 185.019 196.223 185.019C196.223 185.019 195.051 183.497 194.441 183.243C193.83 182.988 194.389 179.836 194.493 179.435C194.597 179.034 195.409 171.159 195.409 171.159C195.409 171.159 195.103 168.672 195.51 167.605C195.917 166.539 195.002 162.427 195.002 162.427C195.002 162.427 194.696 161.919 195.263 161.308C195.829 160.697 195.61 155.283 195.61 155.283C195.61 155.283 195.56 152.542 195.56 151.829C195.56 151.116 196.17 148.53 196.729 147.668C197.287 146.805 196.935 144.111 196.935 144.111L196.966 143.91C196.966 143.834 196.992 143.734 197.01 143.621L197.057 143.359C197.302 141.872 197.633 140.4 198.049 138.951C198.711 136.818 199.476 133.063 199.476 133.063L204.218 120.651L204.273 120.505C204.273 120.505 206.459 124.567 206.459 128.327C206.459 128.327 207.023 132.845 206.869 134.064C206.715 135.282 207.328 141.019 207.328 141.019C207.328 141.019 207.988 149.243 207.988 149.599C207.988 149.955 208.802 156.303 209.313 157.27C209.824 158.237 208.791 161.177 208.497 161.481C208.202 161.785 208.598 169.251 208.598 169.251C208.598 169.251 207.834 175.14 207.683 176.358C207.531 177.577 206.918 182.249 207.422 184.079C207.925 185.908 207.727 186.159 207.727 186.159C207.727 186.159 209.553 188.038 208.491 188.19C207.43 188.342 205.797 189.713 206.454 191.896C207.111 194.079 208.697 197.331 208.697 197.331C208.697 197.331 209.013 197.26 209.54 197.153V197.756L209.603 200.783C209.603 200.783 209.958 203.665 209.754 204.339C209.605 204.818 209.402 207.096 209.303 208.27C209.266 208.705 209.245 208.996 209.245 208.996C209.245 208.996 209.245 211.684 214.893 210.875C220.541 210.065 221.561 207.827 221.561 207.827L221.603 207.546C221.686 207.022 221.864 205.945 222.018 205.34C222.224 204.525 220.392 200.869 220.392 200.869C220.392 200.869 220.085 198.385 219.576 197.824C219.365 197.502 219.225 197.138 219.166 196.757C219.119 196.553 219.08 196.341 219.046 196.131C219.179 196.149 219.307 196.173 219.422 196.199C219.422 196.199 219.117 194.422 220.291 193.861C221.465 193.301 221.154 192.137 221.003 191.629C220.852 191.12 221.459 188.28 221.459 188.28C221.378 187.997 221.372 187.697 221.444 187.412C221.515 187.126 221.661 186.865 221.866 186.655C222.581 185.942 223.139 180.965 223.139 180.965L223.262 161.795C223.262 161.795 223.619 158.389 223.212 157.021C222.806 155.653 222.396 153.011 222.952 152.303C223.507 151.596 223.004 148.294 223.004 148.294C223.004 148.294 223.004 141.336 223.766 139.612C224.527 137.887 224.287 126.967 224.287 126.967L224.488 119.81C224.488 119.81 226.15 118.238 225.756 109.988C227.53 109.878 229.531 109.812 229.833 110.059C230.392 110.515 234.007 112.852 236.144 111.369C236.603 111.165 238.687 109.388 238.687 109.388L237.79 94.1646C238.351 95.0137 238.69 95.5772 238.69 95.5772C238.69 93.444 244.69 86.5386 244.69 86.5386C244.69 86.5386 250.288 79.2794 251.509 78.4146C252.73 77.5498 255.122 72.9821 255.122 72.9821C255.477 72.1107 255.886 71.2625 256.346 70.4427C256.899 69.5228 255.068 67.0856 255.271 66.5248ZM242.139 71.8578C240.613 72.0098 237.407 75.5136 237.354 76.2736C237.328 76.6745 236.992 77.2144 236.679 77.6389C236.655 77.3323 236.629 77.0204 236.603 76.7034C236.243 72.2168 235.857 66.7449 236.034 66.2208C236.34 65.3062 236.235 61.1944 236.235 61.1944L236.293 61.1158C237.32 64.3025 240.506 68.0605 240.506 68.0605C240.506 68.0605 241.067 69.6853 241.727 69.7351C242.387 69.7849 242.139 71.8578 242.139 71.8578Z" fill="url(#paint2_linear)"/>
<path d="M160.536 70.6968C160.536 70.6968 162.391 60.9219 168.362 60.8721L172.724 69.8923L169.815 71.9075C169.815 71.9075 163.494 72.1093 160.536 70.6968Z" fill="#65617D"/>
<path opacity="0.1" d="M172.724 69.8896L169.815 71.9075C169.815 71.9075 165.381 72.049 162.187 71.2628C161.62 71.1296 161.067 70.94 160.536 70.6968C160.536 70.6968 160.536 70.6444 160.57 70.5395C160.569 70.5273 160.569 70.5151 160.57 70.5029C160.844 69.276 161.222 68.0749 161.7 66.9126C161.882 66.4749 162.091 66.0216 162.315 65.5708C163.189 63.8805 164.418 62.2243 166.098 61.404C166.72 61.097 167.397 60.9187 168.088 60.8799H168.266H168.354L168.448 61.079L169.925 64.1268L172.724 69.8896Z" fill="black"/>
<path d="M222.284 110.507C222.284 110.507 228.544 109.902 229.105 110.355C229.666 110.808 233.219 113.128 235.325 111.665C237.43 110.203 236.026 105.114 236.026 104.912C236.026 104.71 235.828 97.506 235.828 97.506L232.064 92.4167L227.35 83.5066L217.718 82.55L217.979 96.7015L217.93 103.958L222.284 110.507Z" fill="#65617D"/>
<path opacity="0.1" d="M222.284 110.507C222.284 110.507 228.544 109.902 229.105 110.355C229.666 110.808 233.219 113.128 235.325 111.665C237.43 110.203 236.026 105.114 236.026 104.912C236.026 104.71 235.828 97.506 235.828 97.506L232.064 92.4167L227.35 83.5066L217.718 82.55L217.979 96.7015L217.93 103.958L222.284 110.507Z" fill="black"/>
<path d="M167.105 60.6203C167.105 60.6203 166.606 66.7684 162.792 66.8679C162.792 66.8679 161.712 66.2128 160.259 65.1226C156.91 62.6042 151.593 57.7639 153.062 53.2616C155.17 46.8122 165.401 58.7047 165.401 58.7047L166.184 59.5904L167.105 60.6203Z" fill="#F89D8F"/>
<path opacity="0.1" d="M167.104 60.6205C167.104 60.6205 166.606 66.7685 162.792 66.8681C162.792 66.8681 161.712 66.2129 160.259 65.1227L159.933 64.7034C160.579 65.0424 161.292 65.2348 162.02 65.2669C162.977 65.2878 164.055 64.9314 164.746 63.5425C165.143 62.7511 165.491 61.9364 165.79 61.1027C165.973 60.6142 166.102 60.1072 166.176 59.5906L167.104 60.6205Z" fill="black"/>
<path d="M165.451 71.7555L164.593 70.647L161.697 66.9126L160.226 65.0048C160.871 65.3454 161.584 65.5387 162.313 65.5708C163.27 65.5918 164.347 65.2354 165.041 63.8438C165.438 63.0526 165.787 62.2378 166.085 61.404C166.562 60.0439 166.552 59.3442 166.385 59.1083C166.218 58.8725 167.449 60.0229 168.041 60.5864L168.062 60.6073C168.232 60.7646 168.341 60.8694 168.341 60.8694L168.443 61.0738L169.896 63.9932L169.912 64.1164C170.045 65.0441 170.535 70.9222 165.451 71.7555Z" fill="#E7EFFD"/>
<path d="M195.499 201.461C195.499 201.461 191.285 204.234 189.18 203.82C187.075 203.406 184.915 204.528 184.915 204.528C183.464 206.121 181.633 207.317 179.596 208.005C176.186 209.164 171.423 208.71 168.715 207.801C167.431 207.374 167.33 206.818 167.945 206.137C168.631 205.374 170.204 204.454 172.025 203.367C175.484 201.302 179.197 197.219 179.197 197.219C179.197 197.219 179.246 196.212 179.849 195.759C180.218 195.442 180.557 195.091 180.861 194.711C181.398 194.071 181.905 193.4 181.905 193.4L194.296 193.804C194.296 193.804 194.507 194.703 194.672 195.62C194.81 196.372 194.917 197.137 194.846 197.434C194.695 198.086 195.199 198.691 195.199 198.691L195.42 200.749L195.499 201.461Z" fill="#65617D"/>
<path d="M221.436 204.936C221.288 205.539 221.108 206.621 221.027 207.13C220.998 207.303 220.985 207.408 220.985 207.408C220.985 207.408 219.981 209.625 214.414 210.432C208.847 211.239 208.847 208.566 208.847 208.566C208.847 208.566 208.868 208.278 208.904 207.845C209.001 206.666 209.201 204.41 209.348 203.93C209.548 203.275 209.199 200.403 209.199 200.403L209.139 197.399L209.097 195.303L218.327 194.344C218.386 195.037 218.485 195.727 218.624 196.409C218.682 196.783 218.82 197.141 219.029 197.457C219.529 198.015 219.832 200.481 219.832 200.481C219.832 200.481 221.632 204.129 221.436 204.936Z" fill="#65617D"/>
<path opacity="0.1" d="M194.306 193.801C194.306 193.801 194.517 194.7 194.682 195.617C193.343 195.864 187.492 196.883 186.028 196.17C184.375 195.363 180.811 194.91 180.811 194.91L180.871 194.705C181.408 194.066 181.915 193.395 181.915 193.395L194.306 193.801Z" fill="black"/>
<path opacity="0.1" d="M218.62 196.419C216.272 196.021 211.154 196.985 209.135 197.399L209.093 195.303L218.322 194.344C218.381 195.041 218.48 195.734 218.62 196.419Z" fill="black"/>
<path d="M223.839 120.03L223.638 127.135C223.638 127.135 223.899 137.969 223.137 139.682C222.376 141.396 222.383 148.299 222.383 148.299C222.383 148.299 222.887 151.575 222.334 152.277C221.781 152.98 222.183 155.605 222.595 156.966C223.007 158.326 222.642 161.704 222.642 161.704L222.543 180.75C222.543 180.75 221.992 185.688 221.288 186.395C221.085 186.605 220.942 186.864 220.872 187.147C220.802 187.43 220.807 187.727 220.889 188.007C220.889 188.007 220.286 190.827 220.437 191.333C220.589 191.838 220.889 192.994 219.736 193.547C218.583 194.1 218.88 195.866 218.88 195.866C216.122 195.211 208.299 196.977 208.299 196.977C208.299 196.977 206.734 193.751 206.089 191.584C205.445 189.417 207.044 188.057 208.095 187.915C209.147 187.774 207.344 185.897 207.344 185.897C207.344 185.897 207.545 185.635 207.044 183.832C206.543 182.029 207.143 177.38 207.305 176.172C207.467 174.964 208.208 169.117 208.208 169.117C208.208 169.117 207.808 161.712 208.108 161.408C208.408 161.104 209.413 158.182 208.912 157.214C208.411 156.247 207.608 149.958 207.608 149.615C207.608 149.271 206.955 141.098 206.955 141.098C206.955 141.098 206.355 135.403 206.504 134.195C206.653 132.987 206.102 128.503 206.102 128.503C206.102 124.771 203.948 120.74 203.948 120.74L203.893 120.885L199.231 133.202C199.231 133.202 198.48 136.928 197.825 139.046C197.414 140.483 197.087 141.944 196.847 143.419L196.802 143.682C196.784 143.794 196.768 143.891 196.758 143.965L196.727 144.169C196.727 144.169 197.076 146.839 196.526 147.696C195.975 148.553 195.349 151.122 195.349 151.837C195.349 152.552 195.396 155.267 195.396 155.267C195.396 155.267 195.6 160.658 195.047 161.263C194.493 161.869 194.786 162.372 194.786 162.372C194.786 162.372 195.691 166.452 195.289 167.511C194.887 168.57 195.19 171.036 195.19 171.036C195.19 171.036 194.394 178.829 194.306 179.238C194.217 179.647 193.653 182.766 194.253 183.017C194.853 183.269 196.009 184.781 196.009 184.781C196.009 184.781 196.27 191.382 195.36 191.885C194.449 192.389 194.955 194.959 194.955 194.959C194.955 194.959 187.685 196.372 186.028 195.565C184.372 194.758 180.811 194.304 180.811 194.304L181.309 192.648C181.28 192.706 180.949 193.243 180.712 191.181C180.451 189.013 182.569 190.072 182.569 190.072C182.569 190.072 184.223 190.476 181.562 187.855C178.901 185.234 180.208 182.564 180.359 182.564C180.511 182.564 180.86 178.685 180.86 178.685C180.86 178.685 181.312 176.366 180.959 174.553C180.607 172.739 180.31 167.094 180.31 167.094C180.31 167.094 180.571 162.812 180.109 161.25C179.647 159.688 180.409 156.866 180.56 156.208C180.712 155.55 180.109 149.557 180.109 149.557C180.109 149.557 180.612 146.737 180.31 144.672C180.007 142.607 180.612 134.997 180.612 134.997L181.515 126.228C181.515 126.228 182.165 123.508 182.066 122.399C181.966 121.291 182.817 117.42 182.817 117.42C182.817 117.42 182.718 116.008 183.219 115.001C183.719 113.995 183.923 110.669 183.923 110.669L188.739 99.5815L191.086 89.8065L222.939 89.5051C222.939 89.5051 223.056 90.3516 223.247 91.8925C223.437 93.4335 223.714 95.716 224.03 98.5306C224.306 101.088 224.609 104.097 224.906 107.441C225.845 118.115 223.839 120.03 223.839 120.03Z" fill="#9347B2"/>
<path d="M220.881 31.796L213.454 39.7602C213.454 39.7602 203.927 35.9288 204.929 34.6185C205.317 34.1101 205.255 32.522 205.03 30.7452C204.678 27.9568 203.927 24.7413 203.927 24.7413C203.927 24.7413 220.578 22.0211 219.172 24.8409C218.65 25.8734 218.75 27.0763 219.068 28.1874C219.475 29.4806 220.087 30.6992 220.881 31.796Z" fill="#F89D8F"/>
<path opacity="0.1" d="M219.172 24.8409C218.65 25.8734 218.416 25.973 218.737 27.0841C216.558 29.4427 213.78 31.9978 210.347 31.9978C208.502 32.0008 206.682 31.5719 205.03 30.7452C204.678 27.9568 203.927 24.7413 203.927 24.7413C203.927 24.7413 220.578 22.0211 219.172 24.8409Z" fill="black"/>
<path d="M222.284 19.6916C222.308 21.2815 222.016 22.8602 221.427 24.3359C220.837 25.8116 219.962 27.1549 218.851 28.2875C217.74 29.4201 216.416 30.3196 214.955 30.9335C213.495 31.5474 211.928 31.8636 210.345 31.8636C208.763 31.8636 207.196 31.5474 205.735 30.9335C204.275 30.3196 202.951 29.4201 201.84 28.2875C200.729 27.1549 199.854 25.8116 199.264 24.3359C198.675 22.8602 198.383 21.2815 198.407 19.6916C198.407 19.634 198.407 19.5763 198.407 19.5187C198.429 16.3382 199.709 13.2971 201.964 11.0643C204.219 8.83161 207.264 7.59017 210.43 7.61311C213.596 7.63604 216.624 8.92148 218.846 11.1866C221.069 13.4518 222.305 16.5111 222.282 19.6916H222.284Z" fill="#F89D8F"/>
<path opacity="0.1" d="M224.013 98.8215C222.432 98.8346 217.165 98.8791 211.28 98.9735H211.209L209.263 99.0049H209.203C202.225 99.1176 195.348 97.747 192.588 98.0091C186.719 98.562 194.693 92.566 194.693 92.566C194.693 92.566 201.046 94.2694 208.063 93.9235L209.751 93.837C215.086 93.533 220.447 93.0299 223.243 92.186C223.439 93.7427 223.71 96.0174 224.013 98.8215Z" fill="black"/>
<path d="M224.013 98.5201C222.432 98.5201 217.165 98.5778 211.28 98.6695H211.209L209.263 98.7036H209.203C202.225 98.8163 195.348 97.4457 192.588 97.7051C186.719 98.2581 194.693 92.2647 194.693 92.2647C194.693 92.2647 201.046 93.9655 208.063 93.6222L209.751 93.5331C215.086 93.2317 220.447 92.7259 223.243 91.8821C223.439 93.4387 223.71 95.7056 224.013 98.5201Z" fill="#E3A79F"/>
<path opacity="0.1" d="M207.136 35.1216L197.906 39.4561L190.785 94.783C190.785 94.783 194.998 92.8699 197.406 94.078C199.813 95.2861 207.235 94.1802 207.235 94.1802C207.235 94.1802 212.654 93.8762 213.457 94.4816C214.261 95.087 223.689 91.9632 223.689 91.9632C223.689 91.9632 225.395 88.1318 224.09 87.529C222.786 86.9263 224.492 80.9775 224.492 80.9775L223.689 41.0678L222.084 35.9287L217.769 33.3081L213.35 36.8355L211.263 37.1369L207.136 35.1216Z" fill="black"/>
<path d="M207.136 34.5165L197.906 38.8511L190.785 94.1832C190.785 94.1832 194.998 92.2675 197.406 93.4782C199.813 94.689 207.235 93.5778 207.235 93.5778C207.235 93.5778 212.654 93.2764 213.457 93.8792C214.261 94.4819 223.689 91.3608 223.689 91.3608C223.689 91.3608 225.395 87.532 224.09 86.9266C222.786 86.3213 224.492 80.375 224.492 80.375L223.689 40.4601L222.084 35.3211L217.769 32.7004L213.35 36.2304L211.263 36.5292L207.136 34.5165Z" fill="#E7EFFD"/>
<path opacity="0.1" d="M206.984 37.0872C206.984 37.0872 209.642 40.2608 209.593 40.916C209.543 41.5711 209.444 43.133 209.444 43.133L207.435 47.216C207.435 47.216 206.332 52.3053 206.332 53.364C206.332 54.4227 204.576 63.5845 204.576 63.5845L202.471 77.694L199.812 96.1878L202.52 100.874L205.732 98.1533L209.994 65.1962L210.897 58.697C210.897 58.697 211.849 47.0063 211.849 45.7982C211.849 44.5901 211.299 41.4139 211.299 41.4139C211.299 41.4139 211.951 38.3897 214.659 37.6847C217.367 36.9798 214.458 37.5327 214.458 37.5327L212.893 36.2722L211.539 36.8278C211.539 36.8278 207.787 35.6773 206.984 37.0872Z" fill="black"/>
<path d="M206.685 36.7912C206.685 36.7912 209.344 39.9647 209.294 40.6199C209.245 41.2751 209.143 42.837 209.143 42.837L207.137 46.9199C207.137 46.9199 206.046 52.0039 206.046 53.0601C206.046 54.1162 204.291 63.2805 204.291 63.2805L202.17 77.411L199.524 95.8917L202.235 100.58L205.431 97.8519L209.698 64.9027L210.601 58.4035C210.601 58.4035 211.553 46.7129 211.553 45.5021C211.553 44.2914 211.003 41.1178 211.003 41.1178C211.003 41.1178 211.655 38.0962 214.363 37.3887C217.071 36.6811 214.162 37.2393 214.162 37.2393L212.597 35.9788L211.264 36.5291C211.264 36.5291 207.489 35.3734 206.685 36.7912Z" fill="#9347B2"/>
<path opacity="0.1" d="M204.927 31.4949C204.927 31.4949 204.526 31.7962 204.427 33.8115C204.327 35.8268 202.921 40.3631 202.921 40.3631C202.921 40.3631 208.139 36.7335 210.748 37.1371L204.927 31.4949Z" fill="black"/>
<path d="M204.927 30.8894C204.927 30.8894 204.526 31.1908 204.427 33.2087C204.327 35.2266 202.921 39.7603 202.921 39.7603C202.921 39.7603 208.139 36.1333 210.748 36.5369L204.927 30.8894Z" fill="#E7EFFD"/>
<path opacity="0.1" d="M219.176 29.8806L210.948 37.1372C210.948 37.1372 217.871 41.2699 218.774 42.2788C219.677 43.2878 220.579 32.4017 220.579 32.4017L219.176 29.8806Z" fill="black"/>
<path d="M219.475 29.2776L211.263 36.5289C211.263 36.5289 218.184 40.659 219.089 41.668C219.994 42.6769 220.897 31.7908 220.897 31.7908L219.475 29.2776Z" fill="#E7EFFD"/>
<path opacity="0.1" d="M205.228 31.4948C205.228 31.4948 204.325 31.0414 203.472 32.3517C202.619 33.662 201.015 34.2648 201.015 34.2648C201.015 34.2648 191.884 35.7271 191.535 36.9352L187.272 37.1973C187.272 37.1973 185.767 37.3964 185.615 40.5727C185.464 43.7489 184.653 44.0424 184.653 44.0424C184.653 44.0424 182.897 47.1662 183.046 48.7779C183.195 50.3896 181.692 51.1967 181.692 51.1967L187.953 67.5731C187.953 67.5731 188.154 74.3264 186.998 76.7951C185.842 79.2637 183.688 90.1996 183.688 90.1996C183.688 90.1996 184.593 89.9978 184.541 90.6006C184.489 91.2033 183.437 97.8073 183.437 97.8073C183.437 97.8073 183.137 100.428 182.636 101.335C182.135 102.241 182.083 106.98 182.083 106.98L181.28 110.405C181.28 110.405 183.187 114.689 186.096 114.074C189.004 113.458 194.305 102.045 194.305 102.045L197.665 89.6991L200.274 77.5053L201.025 69.2424L202.23 50.9504L203.986 38.8561C203.986 38.8561 205.932 32.3517 205.228 31.4948Z" fill="black"/>
<path d="M204.928 30.8896C204.928 30.8896 204.025 30.4362 203.172 31.7465C202.319 33.0568 200.715 33.6622 200.715 33.6622C200.715 33.6622 191.584 35.1219 191.235 36.3326L186.969 36.5947C186.969 36.5947 185.464 36.7965 185.315 39.9701C185.167 43.1436 184.361 43.4476 184.361 43.4476C184.361 43.4476 182.605 46.5714 182.756 48.1831C182.907 49.7948 181.402 50.602 181.402 50.602L187.663 66.9783C187.663 66.9783 187.864 73.7317 186.711 76.2003C185.558 78.669 183.401 89.6049 183.401 89.6049C183.401 89.6049 184.303 89.4031 184.254 90.0085C184.204 90.6138 183.15 97.2126 183.15 97.2126C183.15 97.2126 182.85 99.8332 182.347 100.74C181.843 101.647 181.796 106.385 181.796 106.385L181 109.8C181 109.8 182.907 114.084 185.816 113.468C188.725 112.853 193.992 101.427 193.992 101.427L197.355 89.0808L199.963 76.8843L200.717 68.6215L201.92 50.3294L203.676 38.2352C203.676 38.2352 205.629 31.7465 204.928 30.8896Z" fill="#9347B2"/>
<path opacity="0.1" d="M172.723 69.8897L169.815 71.9076C169.815 71.9076 165.38 72.0491 162.187 71.2629L160.569 70.5396L160.243 70.3981L160.577 70.5029C162.255 71.0035 163.567 70.993 164.592 70.6471C168.708 69.2555 168.244 62.4261 168.095 60.88C168.08 60.7254 168.069 60.6179 168.062 60.5865C168.061 60.5804 168.061 60.5742 168.062 60.5681L168.085 60.6074C168.141 60.7002 168.204 60.7879 168.275 60.8695C168.333 60.935 168.393 61.0031 168.458 61.066L169.911 63.9854L169.927 64.1086L172.723 69.8897Z" fill="black"/>
<path d="M182.807 50.188L181.403 50.5916L181.202 53.4743C181.202 53.4743 179.546 53.2122 179.095 55.1882C178.643 57.1641 177.842 58.0709 177.842 58.0709C177.842 58.0709 175.082 60.3901 174.931 62.353L173.228 63.4012C173.228 63.4012 169.262 62.4735 168.362 60.8723C168.362 60.8723 170.168 73.8733 160.536 70.6971C160.536 70.6971 171.321 75.4352 171.821 76.0903C172.322 76.7455 175.635 78.6586 178.643 77.0469C181.651 75.4352 182.306 72.9561 182.306 72.9561C182.306 72.9561 185.215 68.8731 185.316 68.2677C185.418 67.6624 187.664 66.9574 187.664 66.9574L191.979 56.4749L182.807 50.188Z" fill="#9347B2"/>
<path opacity="0.1" d="M218.022 35.9288L219.475 29.2776C219.475 29.2776 220.127 31.4449 220.78 31.948L222.937 33.6095C222.937 33.6095 225.094 34.6184 225.846 34.6184C226.597 34.6184 230.661 35.6667 231.162 36.2301C231.663 36.7936 233.672 36.3821 233.672 36.3821C233.672 36.3821 235.326 36.9351 236.781 37.2889C238.237 37.6427 238.939 40.0615 238.636 41.018C238.515 41.4943 238.516 41.9936 238.639 42.4694C238.763 42.9451 239.004 43.3817 239.341 43.7382C239.941 44.3436 240.243 46.3091 240.243 46.3091C240.981 46.5504 241.593 47.0752 241.947 47.7688C242.45 48.8773 242.299 51.2962 242.299 51.2962L234.825 61.8783C234.825 61.8783 234.924 65.9612 234.624 66.8575C234.324 67.7538 235.668 83.1841 235.668 83.1841L237.233 109.689C237.233 109.689 235.177 111.453 234.726 111.655C234.274 111.856 233.821 102.281 233.821 101.929C233.821 101.578 222.235 84.4944 222.235 84.4944C222.235 84.4944 220.67 81.9733 220.67 81.4204C220.67 80.8674 219.214 75.7755 219.214 75.7755L217.007 65.9508L218.022 35.9288Z" fill="black"/>
<path d="M242.919 50.7197C242.919 51.0656 242.901 51.2962 242.901 51.2962L235.432 61.8705C235.432 61.8705 235.536 65.9508 235.233 66.8497C235.059 67.3738 235.442 72.7985 235.797 77.251C236.058 80.4665 236.287 83.1762 236.287 83.1762L236.947 94.4188L237.84 109.681C237.84 109.681 235.784 111.445 235.333 111.647C234.881 111.849 234.43 102.273 234.43 101.919C234.43 101.565 222.842 84.4865 222.842 84.4865C222.842 84.4865 221.277 81.9655 221.277 81.4125C221.277 80.8596 219.824 75.7677 219.824 75.7677L217.617 65.9403L218.618 35.9105L219.472 29.2593C219.472 29.2593 220.726 31.4265 221.379 31.9271C222.031 32.4276 223.533 33.5912 223.533 33.5912C223.533 33.5912 225.691 34.6001 226.445 34.6001C227.199 34.6001 231.26 35.6484 231.761 36.2118C232.262 36.7753 234.271 36.3638 234.271 36.3638C234.271 36.3638 235.925 36.9168 237.378 37.2706C238.831 37.6243 239.535 40.0432 239.235 40.9971C239.113 41.4735 239.114 41.9733 239.236 42.4495C239.359 42.9257 239.6 43.3628 239.937 43.7199C240.54 44.3253 240.84 46.2882 240.84 46.2882C241.579 46.5311 242.192 47.0577 242.546 47.7531C242.898 48.5367 242.932 49.9335 242.919 50.7197Z" fill="#9347B2"/>
<path opacity="0.1" d="M181.603 184.983C181.864 184.983 192.388 185.386 192.187 187.1C191.986 188.814 181.603 184.983 181.603 184.983Z" fill="black"/>
<path opacity="0.1" d="M183.962 187.855C183.962 187.855 191.034 189.013 189.179 190.072C187.325 191.131 183.962 187.855 183.962 187.855Z" fill="black"/>
<path opacity="0.1" d="M210.244 183.874C210.244 183.874 221.983 184.883 220.227 186.191C218.472 187.499 214.308 187.703 214.107 187.763C213.906 187.824 210.244 183.874 210.244 183.874Z" fill="black"/>
<path opacity="0.1" d="M208.842 189.066C208.842 189.066 215.364 190.174 215.562 191.424C215.761 192.674 208.842 189.066 208.842 189.066Z" fill="black"/>
<path opacity="0.1" d="M212.453 158.729C212.453 158.729 218.422 160.139 218.774 161.088L212.453 158.729Z" fill="black"/>
<path opacity="0.1" d="M189.429 163.064C189.429 163.064 186.319 163.97 189.329 165.784C192.34 167.597 189.429 163.064 189.429 163.064Z" fill="black"/>
<path opacity="0.1" d="M203.223 114.637C203.575 114.637 209.043 112.824 210.947 113.631C212.851 114.438 215.212 114.435 215.212 114.435L203.223 114.637Z" fill="black"/>
<path opacity="0.1" d="M203.928 120.389L203.873 120.887L199.211 133.204C199.211 133.204 198.46 136.931 197.805 139.048C197.394 140.486 197.067 141.946 196.827 143.422L200.967 117.633L203.928 120.389Z" fill="black"/>
<path d="M211.212 98.6694L209.265 98.7035H209.205L208.065 93.6247C208.626 93.5959 209.187 93.567 209.753 93.533L211.212 98.6694Z" fill="#3F3D56"/>
<path d="M234.874 92.5188L233.625 93.5514L229.451 97.0001C229.451 97.0001 218.163 103.049 215.053 97.3041C212.311 92.2437 225.11 88.6298 228.191 87.841C228.611 87.7336 228.848 87.6812 228.848 87.6812L234.874 92.5188Z" fill="#F89D8F"/>
<path opacity="0.1" d="M186.67 42.9836C186.67 42.9836 188.877 43.99 189.378 45.4025C189.879 46.815 186.67 42.9836 186.67 42.9836Z" fill="black"/>
<path opacity="0.1" d="M179.848 58.0996C179.848 58.0996 176.636 62.0306 177.941 63.5427C179.245 65.0548 179.848 58.0996 179.848 58.0996Z" fill="black"/>
<path opacity="0.1" d="M237.233 45.2007C237.233 45.2007 234.222 45.5021 234.123 48.1227L237.233 45.2007Z" fill="black"/>
<path opacity="0.1" d="M209.342 86.5201C209.642 86.2187 216.565 75.938 218.17 76.8447L209.342 86.5201Z" fill="black"/>
<path opacity="0.1" d="M222.284 19.7019C222.286 21.6769 221.801 23.6217 220.873 25.3624L220.784 25.3467C220.027 25.1868 219.633 24.2984 219.054 23.7481C218.699 23.4082 218.247 23.1885 217.761 23.1199C217.276 23.0513 216.781 23.1372 216.346 23.3655C215.907 23.6299 215.55 24.0119 215.315 24.4688C215.08 24.9257 214.977 25.4393 215.016 25.9521C214.635 24.3378 214.755 22.6212 214.382 21.0043C214.009 19.3874 212.885 17.7521 211.348 17.7233C210.685 17.7233 209.911 17.9696 209.433 17.4612C209.144 17.1598 209.084 16.675 208.867 16.3212C207.769 14.534 204.432 15.4381 203.06 16.3527C201.74 17.2332 200.107 18.7322 198.409 19.5184C198.432 16.3379 199.711 13.2968 201.966 11.0641C204.221 8.83137 207.266 7.58992 210.432 7.61286C213.598 7.6358 216.626 8.92124 218.848 11.1864C221.071 13.4516 222.307 16.5109 222.284 19.6914V19.7019Z" fill="black"/>
<path d="M208.869 16.0279C209.088 16.3922 209.145 16.8691 209.435 17.1679C209.912 17.6658 210.687 17.4116 211.35 17.4299C212.886 17.4561 214.01 19.094 214.384 20.711C214.757 22.3279 214.644 24.0418 215.017 25.6561C214.978 25.1434 215.082 24.63 215.318 24.1735C215.553 23.7169 215.911 23.3355 216.35 23.0722C216.785 22.8441 217.279 22.7581 217.764 22.8263C218.249 22.8944 218.701 23.1133 219.056 23.4522C219.635 24.0051 220.029 24.8909 220.785 25.0507C221.542 25.2106 222.272 24.4821 222.544 23.6801C222.815 22.8782 222.805 22.0003 222.977 21.1696C223.318 19.5972 224.338 18.3105 224.905 16.8167C225.576 14.9977 225.558 12.9937 224.852 11.1876C224.477 10.2415 223.916 9.38982 223.548 8.44377C222.969 7.00767 222.818 5.38811 222.116 4.02014C220.934 1.72971 218.153 0.581868 215.868 1.44406C214.777 1.8555 213.83 2.65217 212.724 3.01644C211.24 3.49339 209.656 3.13437 208.12 2.91947C206.583 2.70458 204.89 2.68362 203.656 3.70567C202.237 4.87185 201.849 7.06532 200.526 8.34681C199.965 8.88404 199.269 9.22734 198.676 9.72526C198.084 10.2232 197.575 10.9622 197.633 11.772C197.722 12.8202 198.739 13.7637 198.363 14.7307C198.227 15.01 198.039 15.2602 197.808 15.4671C196.689 16.6431 195.857 18.0641 195.379 19.6182C198.063 20.4594 200.969 17.4876 203.069 16.0829C204.429 15.1474 207.77 14.2537 208.869 16.0279Z" fill="#141720"/>
<path opacity="0.1" d="M234.875 92.5189L233.626 93.5514C232.525 91.7169 228.004 88.0297 228.004 88.0297L228.2 87.841C228.62 87.7336 228.857 87.6812 228.857 87.6812L234.875 92.5189Z" fill="black"/>
<path d="M236.08 90.6529C236.08 90.6529 235.631 91.7745 235.167 92.7494C234.702 93.7243 234.199 94.5996 234.173 93.8841C234.123 92.4716 228.306 87.7335 228.306 87.7335L229.088 86.963L230.004 86.072L236.08 90.6529Z" fill="#E7EFFD"/>
<path opacity="0.1" d="M236.28 83.1945L236.94 94.4371C235.375 92.0025 231.104 85.7628 228.352 85.9646L235.025 78.2573C235.302 77.9461 235.558 77.616 235.79 77.2693C236.045 80.4848 236.28 83.1945 236.28 83.1945Z" fill="black"/>
<path opacity="0.1" d="M236.079 90.6529C236.079 90.6529 235.631 91.7745 235.166 92.7494C233.419 90.341 231.013 87.495 229.093 86.963L230.009 86.072L236.079 90.6529Z" fill="black"/>
<path d="M241.096 49.8943L242.902 51.3042C242.902 51.3042 245.909 51.3566 246.212 53.875C246.515 56.3935 249.272 57.5439 249.272 57.5439C249.272 57.5439 251.328 59.609 251.328 60.5655C251.328 61.522 252.893 63.2386 252.893 63.3879C252.893 63.5373 254.398 66.6139 254.197 67.1669C253.996 67.7198 255.802 70.1413 255.241 71.0481C254.787 71.8613 254.384 72.7024 254.036 73.5665C254.036 73.5665 251.688 78.1028 250.475 78.9598C249.262 79.8167 243.755 87.0208 243.755 87.0208C243.755 87.0208 237.835 93.8738 237.835 95.9913C237.835 95.9913 232.065 86.3159 228.655 86.557L235.326 78.8471C235.326 78.8471 236.481 77.5892 236.531 76.8318C236.581 76.0744 239.74 72.5995 241.245 72.4475C241.245 72.4475 241.506 70.3824 240.843 70.3326C240.181 70.2828 239.641 68.6685 239.641 68.6685C239.641 68.6685 235.227 63.4272 235.177 60.1017C235.128 56.7761 241.096 49.8943 241.096 49.8943Z" fill="#9347B2"/>
<path opacity="0.1" d="M243.754 54.6746C243.754 54.6746 239.539 57.7983 240.444 58.8047C241.349 59.811 243.754 54.6746 243.754 54.6746Z" fill="black"/>
<path opacity="0.1" d="M243.956 67.5729C243.956 67.5729 251.782 65.0545 252.583 67.5729H243.956Z" fill="black"/>
<path opacity="0.1" d="M195.499 201.461C195.499 201.461 191.285 204.234 189.18 203.82C187.075 203.406 184.915 204.527 184.915 204.527C183.464 206.12 181.633 207.317 179.596 208.005C176.186 209.163 171.423 208.71 168.715 207.801C167.431 207.373 167.33 206.818 167.945 206.137C170.89 206.726 177.472 207.898 179.246 207.046C181.552 205.937 184.863 203.519 184.863 203.519C184.863 203.519 189.18 202.913 189.78 202.913C190.208 202.913 193.539 201.532 195.42 200.738L195.499 201.461Z" fill="black"/>
<path opacity="0.1" d="M221.022 207.133C220.994 207.306 220.981 207.41 220.981 207.41C220.981 207.41 219.976 209.627 214.409 210.435C208.842 211.242 208.842 208.569 208.842 208.569C208.842 208.569 208.863 208.28 208.9 207.848C210.661 208.516 214.506 209.268 221.022 207.133Z" fill="black"/>
<path opacity="0.1" d="M188.752 54.0691C188.752 54.0691 188.752 65.558 187.774 66.6927C186.796 67.8274 188.752 54.0691 188.752 54.0691Z" fill="black"/>
<path opacity="0.1" d="M233.971 57.7717L235.424 61.8783C235.424 61.8783 236.003 57.8477 233.971 57.7717Z" fill="black"/>
<g opacity="0.1">
<path opacity="0.1" d="M198.504 13.7296C198.871 12.7836 197.909 11.8585 197.784 10.8469C197.656 11.1328 197.6 11.4462 197.622 11.7589C197.687 12.5215 198.248 13.2369 198.404 13.9419C198.444 13.8746 198.478 13.8035 198.504 13.7296Z" fill="black"/>
<path opacity="0.1" d="M215.153 24.5819C214.793 22.9911 214.892 21.3087 214.532 19.7206C214.172 18.1325 213.037 16.4658 211.501 16.4396C210.838 16.4396 210.063 16.6833 209.583 16.1775C209.296 15.8787 209.236 15.3913 209.02 15.0375C207.921 13.2502 204.585 14.157 203.21 15.0716C201.157 16.4422 198.34 19.3065 195.71 18.6566C195.582 18.9632 195.465 19.2725 195.368 19.5896C198.053 20.4308 200.959 17.459 203.059 16.0543C204.428 15.1397 207.77 14.2199 208.868 16.0203C209.087 16.3845 209.145 16.8615 209.434 17.1602C209.912 17.6581 210.687 17.4039 211.349 17.4223C212.886 17.4485 214.01 19.0864 214.383 20.7033C214.756 22.3203 214.644 24.0342 215.017 25.6485C214.991 25.2874 215.037 24.9248 215.153 24.5819Z" fill="black"/>
<path opacity="0.1" d="M222.694 22.6897C222.434 23.4917 221.706 24.2254 220.934 24.0603C220.161 23.8952 219.783 23.0121 219.207 22.4618C218.851 22.1223 218.399 21.9031 217.913 21.8349C217.428 21.7668 216.933 21.8531 216.499 22.0818C216.08 22.3328 215.737 22.6916 215.503 23.1211C215.269 23.5505 215.153 24.0349 215.168 24.5242C215.369 23.9075 215.79 23.3873 216.35 23.0645C216.784 22.8364 217.278 22.7505 217.763 22.8186C218.248 22.8867 218.7 23.1056 219.055 23.4445C219.634 23.9974 220.028 24.8832 220.785 25.0431C221.541 25.2029 222.272 24.4744 222.543 23.6725C222.687 23.2017 222.78 22.7167 222.82 22.2259C222.787 22.3829 222.745 22.5378 222.694 22.6897Z" fill="black"/>
<path opacity="0.1" d="M225.053 15.8262C224.489 17.3199 223.467 18.6093 223.128 20.1817C223.06 20.4988 223.021 20.8237 222.981 21.1487C223.326 19.5763 224.341 18.2974 224.904 16.8089C225.155 16.135 225.311 15.4294 225.368 14.7124C225.291 15.0911 225.186 15.4635 225.053 15.8262Z" fill="black"/>
</g>
<path d="M156.762 53.3966L156.734 53.4108C156.685 53.4355 156.665 53.4954 156.69 53.5445L157.448 55.0565C157.473 55.1056 157.532 55.1254 157.581 55.1007L157.609 55.0865C157.658 55.0618 157.678 55.0019 157.653 54.9528L156.895 53.4408C156.871 53.3917 156.811 53.3719 156.762 53.3966Z" fill="#3A3768"/>
<path d="M149.261 55.5034L149.245 55.5116C149.218 55.5253 149.207 55.5584 149.22 55.5855L149.451 56.0442C149.464 56.0714 149.497 56.0823 149.524 56.0686L149.54 56.0604C149.567 56.0467 149.578 56.0136 149.565 55.9864L149.335 55.5277C149.321 55.5006 149.288 55.4897 149.261 55.5034Z" fill="#3A3768"/>
<path d="M149.777 56.5482L149.761 56.5564C149.73 56.5721 149.718 56.6099 149.733 56.6409L150.163 57.4975C150.178 57.5286 150.216 57.541 150.247 57.5254L150.263 57.5172C150.294 57.5015 150.306 57.4637 150.291 57.4327L149.861 56.5761C149.846 56.545 149.808 56.5326 149.777 56.5482Z" fill="#3A3768"/>
<path d="M150.433 57.8565L150.416 57.8647C150.387 57.8797 150.375 57.916 150.39 57.9457L150.825 58.814C150.84 58.8438 150.876 58.8557 150.906 58.8408L150.922 58.8325C150.952 58.8175 150.964 58.7813 150.949 58.7516L150.513 57.8832C150.498 57.8535 150.462 57.8415 150.433 57.8565Z" fill="#3A3768"/>
<path d="M154.646 50.5025L148.863 53.4281C148.574 53.5739 148.458 53.9269 148.604 54.2164L155.067 67.1084C155.212 67.3979 155.563 67.5144 155.851 67.3686L161.634 64.443C161.922 64.2972 162.038 63.9442 161.893 63.6547L155.43 50.7628C155.285 50.4732 154.934 50.3567 154.646 50.5025Z" fill="#3A3768"/>
<path d="M153.849 51.3487C153.815 51.3636 153.785 51.3854 153.761 51.4126C153.737 51.4398 153.718 51.4719 153.707 51.5067C153.696 51.5415 153.692 51.5783 153.695 51.6148C153.699 51.6512 153.71 51.6864 153.729 51.7182L153.755 51.768C153.773 51.8 153.784 51.8353 153.787 51.8719C153.791 51.9085 153.787 51.9453 153.775 51.9802C153.764 52.015 153.745 52.047 153.72 52.0741C153.696 52.1012 153.666 52.1228 153.632 52.1375L150.739 53.6025C150.707 53.6207 150.672 53.632 150.636 53.6357C150.6 53.6395 150.563 53.6355 150.528 53.6242C150.494 53.6128 150.462 53.5943 150.435 53.5698C150.408 53.5453 150.386 53.5153 150.371 53.4819L150.345 53.4295C150.33 53.3961 150.309 53.3661 150.281 53.3416C150.254 53.3171 150.222 53.2986 150.188 53.2872C150.153 53.2759 150.116 53.2719 150.08 53.2757C150.044 53.2794 150.009 53.2907 149.977 53.3089L149.414 53.592C149.352 53.6228 149.297 53.6657 149.252 53.7181C149.207 53.7705 149.172 53.8313 149.151 53.8971C149.129 53.9629 149.121 54.0323 149.126 54.1014C149.131 54.1705 149.15 54.2378 149.182 54.2995L155.336 66.572C155.366 66.634 155.409 66.6893 155.461 66.7346C155.513 66.78 155.574 66.8145 155.639 66.8362C155.705 66.8579 155.774 66.8663 155.843 66.861C155.911 66.8557 155.978 66.8367 156.04 66.8052L161.088 64.2501C161.149 64.2192 161.204 64.1765 161.249 64.1243C161.294 64.0721 161.328 64.0115 161.35 63.946C161.371 63.8806 161.38 63.8114 161.375 63.7426C161.369 63.6738 161.351 63.6067 161.32 63.5451L155.174 51.2701C155.143 51.2086 155.1 51.1539 155.048 51.109C154.996 51.0642 154.936 51.0301 154.871 51.0086C154.805 50.9872 154.737 50.9789 154.668 50.9842C154.6 50.9895 154.533 51.0083 154.472 51.0395L153.849 51.3487Z" fill="url(#paint3_linear)"/>
<path d="M152.176 52.2754L151.391 52.6727C151.345 52.6961 151.326 52.7528 151.349 52.7993L151.362 52.8251C151.386 52.8716 151.442 52.8904 151.488 52.8669L152.274 52.4697C152.32 52.4463 152.339 52.3895 152.315 52.343L152.302 52.3173C152.279 52.2707 152.223 52.252 152.176 52.2754Z" fill="#E6E8EC"/>
<path d="M152.56 52.3105C152.627 52.3105 152.682 52.2554 152.682 52.1874C152.682 52.1194 152.627 52.0642 152.56 52.0642C152.492 52.0642 152.437 52.1194 152.437 52.1874C152.437 52.2554 152.492 52.3105 152.56 52.3105Z" fill="#E6E8EC"/>
<path opacity="0.1" d="M25.4158 6.83733C25.4158 6.83733 50.757 5.30164 47.77 23.1403C47.77 23.1403 48.3622 26.2851 45.5186 27.7238C45.5186 27.7238 45.4743 26.4135 42.9099 26.8511C41.9999 27.0028 41.0753 27.0468 40.1551 26.9822C38.9119 26.8988 37.73 26.4092 36.7898 25.588C36.7898 25.588 29.6784 22.6398 26.9053 10.936C26.9053 10.936 24.8575 8.38351 24.9384 7.72835L29.2141 9.56279C29.2141 9.56279 27.7532 12.663 28.9036 15.2391C28.9036 15.2391 29.0419 9.67548 29.8636 9.80651C30.0306 9.83534 32.0863 10.881 32.0863 10.881C32.0863 10.881 29.5715 16.2795 31.468 20.2026C31.468 20.2026 30.748 13.5514 32.8715 11.2714L35.882 13.0378C35.882 13.0378 32.9419 18.6118 34.935 23.1639C34.935 23.1639 34.4133 16.1851 36.5003 13.4675L39.229 15.6034C39.229 15.6034 36.469 21.1067 38.1516 24.8725C38.1516 24.8725 38.3707 16.7486 39.8186 16.1353C39.8186 16.1353 42.2055 18.2502 42.5708 19.1176C42.5708 19.1176 40.6794 23.1062 41.8534 25.2132C41.8534 25.2132 42.5708 19.8016 43.1577 19.7754C43.1577 19.7754 45.5369 23.3631 45.7847 25.8186C45.7847 25.8186 45.6804 22.1628 43.7343 19.4321C43.7343 19.4321 46.0326 19.8278 47.3865 21.3268C47.3865 21.3268 47.016 18.7901 43.1577 18.5699C43.1577 18.5699 41.1934 15.8497 40.6664 15.6872C40.6664 15.6872 44.5038 15.3649 46.8308 16.4C46.8308 16.4 44.783 14.0074 39.9646 15.0897L37.2724 12.8831C37.2724 12.8831 42.3229 12.186 44.4647 12.9539C44.4647 12.9539 41.9995 10.839 36.5446 12.38L33.6072 10.6215C33.6072 10.6215 37.9142 9.68859 40.4812 10.0266C40.4812 10.0266 37.7733 8.55909 32.7489 10.1498L30.6619 9.20377C30.6619 9.20377 33.8185 8.58006 34.742 8.48309C35.6655 8.38613 35.715 8.12669 35.715 8.12669C33.7163 7.79292 31.6646 8.02243 29.788 8.78971C29.788 8.78971 25.3401 7.11774 25.4158 6.83733Z" fill="url(#paint4_linear)"/>
<path opacity="0.1" d="M39.6077 54.5589C39.6077 54.5589 51.0574 53.8645 49.7087 61.9256C49.7087 61.9256 49.9696 63.3486 48.6913 63.9959C48.6913 63.9959 48.6704 63.3984 47.5174 63.6001C47.1065 63.6705 46.6887 63.6908 46.273 63.6604C45.7114 63.6227 45.1774 63.4018 44.7521 63.0315C44.7521 63.0315 41.533 61.6949 40.2808 56.4091C40.2808 56.4091 39.3547 55.2587 39.3912 54.9625L41.3243 55.7906C41.3243 55.7906 40.6642 57.1901 41.1834 58.3536C41.1834 58.3536 41.246 55.8404 41.6164 55.9007C41.6921 55.9138 42.6208 56.3855 42.6208 56.3855C42.6208 56.3855 41.486 58.8253 42.3417 60.5969C42.3417 60.5969 42.0182 57.5936 42.9756 56.5611L44.3373 57.3604C44.3373 57.3604 42.9991 59.8788 43.9017 61.9491C43.9017 61.9491 43.6695 58.8044 44.6139 57.5674L45.8478 58.5318C45.8478 58.5318 44.6008 61.0162 45.36 62.7248C45.36 62.7248 45.4591 59.056 46.1139 58.7756C46.1139 58.7756 47.1913 59.7295 47.3583 60.1226C47.3583 60.1226 46.5026 61.9256 47.0322 62.8769C47.0322 62.8769 47.3583 60.4318 47.6243 60.4213C47.6243 60.4213 48.6991 62.0409 48.8113 63.152C48.8113 63.152 48.7644 61.4984 47.8852 60.2693C48.5044 60.3883 49.0755 60.6861 49.5287 61.1263C49.5287 61.1263 49.3618 59.981 47.6191 59.8815C47.6191 59.8815 46.7322 58.6524 46.4948 58.5711C46.4948 58.5711 48.227 58.4244 49.2783 58.8935C49.2783 58.8935 48.3548 57.8138 46.1765 58.3038L44.9582 57.3054C44.9582 57.3054 47.2409 56.9935 48.2087 57.3394C48.2087 57.3394 47.0948 56.3829 44.6321 57.0774L43.3069 56.2912C43.3069 56.2912 45.253 55.8719 46.4113 56.0291C46.4113 56.0291 45.1878 55.3661 42.9182 56.0842L41.9712 55.657C41.9712 55.657 43.3956 55.374 43.8156 55.3294C44.2356 55.2849 44.2539 55.1696 44.2539 55.1696C43.3514 55.0181 42.4247 55.1215 41.5773 55.4683C41.5773 55.4683 39.566 54.6847 39.6077 54.5589Z" fill="url(#paint5_linear)"/>
<path opacity="0.1" d="M0.326953 11.4758C0.326953 11.4758 11.7767 10.7839 10.428 18.8424C10.428 18.8424 10.6888 20.268 9.41055 20.9153C9.41055 20.9153 9.38968 20.3178 8.23662 20.5196C7.82562 20.5887 7.40796 20.6089 6.99226 20.5799C6.43039 20.5412 5.89641 20.3195 5.47137 19.9483C5.47137 19.9483 2.2522 18.6144 1.00001 13.3286C1.00001 13.3286 0.0739053 12.1755 0.110428 11.8794L2.0435 12.7075C2.0435 12.7075 1.38349 14.1095 1.90263 15.2731C1.90263 15.2731 1.96524 12.7599 2.33568 12.8202C2.41133 12.8202 3.34004 13.305 3.34004 13.305C3.34004 13.305 2.20524 15.7448 3.0609 17.5164C3.0609 17.5164 2.73742 14.5105 3.69482 13.4806L5.05658 14.2668C5.05658 14.2668 3.72874 16.7878 4.62875 18.8424C4.62875 18.8424 4.39657 15.6976 5.34093 14.4633L6.57486 15.4277C6.57486 15.4277 5.32789 17.9121 6.08703 19.6207C6.08703 19.6207 6.18616 15.9518 6.84095 15.6741C6.84095 15.6741 7.91835 16.628 8.08531 17.0211C8.08531 17.0211 7.22965 18.8241 7.75922 19.7753C7.75922 19.7753 8.08531 17.3303 8.3514 17.3172C8.3514 17.3172 9.4262 18.9394 9.53838 20.0479C9.53838 20.0479 9.49142 18.3969 8.61228 17.1652C9.23188 17.2828 9.8034 17.5808 10.2558 18.0221C10.2558 18.0221 10.0888 16.8743 8.34619 16.7747C8.34619 16.7747 7.45922 15.5456 7.22182 15.4644C7.22182 15.4644 8.95402 15.3176 10.0053 15.7867C10.0053 15.7867 9.08185 14.7044 6.90356 15.1971L5.69572 14.2091C5.69572 14.2091 7.97836 13.8946 8.94619 14.2432C8.94619 14.2432 7.83227 13.2867 5.36963 13.9811L4.04439 13.1949C4.04439 13.1949 5.9905 12.773 7.14878 12.9329C7.14878 12.9329 5.92529 12.2698 3.65569 12.9879L2.70872 12.5607C2.70872 12.5607 4.1357 12.2803 4.55309 12.2358C4.97049 12.1912 4.99136 12.0759 4.99136 12.0759C4.08692 11.9175 3.15643 12.0155 2.30437 12.3589C2.30437 12.3589 0.293039 11.6042 0.326953 11.4758Z" fill="url(#paint6_linear)"/>
<path d="M259.008 195.08C265.692 195.08 271.11 194.16 271.11 193.026C271.11 191.891 265.692 190.971 259.008 190.971C252.324 190.971 246.906 191.891 246.906 193.026C246.906 194.16 252.324 195.08 259.008 195.08Z" fill="#9347B2"/>
<path d="M264.011 189.666C264.533 189.181 265.015 188.618 265.167 187.915C265.318 187.213 265.021 186.388 264.361 186.133C263.62 185.85 262.829 186.367 262.229 186.885C261.629 187.404 260.941 188.002 260.155 187.892C260.559 187.524 260.862 187.058 261.033 186.538C261.204 186.018 261.238 185.462 261.131 184.925C261.101 184.704 261.01 184.496 260.87 184.322C260.461 183.88 259.715 184.06 259.222 184.417C257.656 185.523 257.221 187.659 257.213 189.582C257.054 188.888 257.187 188.164 257.184 187.454C257.181 186.744 256.986 185.955 256.401 185.572C256.029 185.372 255.611 185.274 255.188 185.287C254.484 185.261 253.701 185.331 253.221 185.848C252.624 186.49 252.778 187.567 253.3 188.274C253.821 188.982 254.604 189.425 255.334 189.912C255.918 190.261 256.415 190.738 256.79 191.306C256.835 191.39 256.871 191.478 256.897 191.568H261.308C262.29 191.058 263.199 190.418 264.011 189.666Z" fill="#9347B2"/>
<path d="M15.2381 210.225C20.4839 210.225 24.7365 209.502 24.7365 208.61C24.7365 207.719 20.4839 206.996 15.2381 206.996C9.99232 206.996 5.73975 207.719 5.73975 208.61C5.73975 209.502 9.99232 210.225 15.2381 210.225Z" fill="#9347B2"/>
<path d="M19.1647 205.971C19.5986 205.616 19.9152 205.138 20.0725 204.598C20.1873 204.053 19.9577 203.398 19.4386 203.199C18.8568 202.976 18.2359 203.38 17.7664 203.788C17.2968 204.197 16.7542 204.664 16.1385 204.575C16.4556 204.286 16.6928 203.92 16.8273 203.513C16.9617 203.105 16.9886 202.669 16.9055 202.247C16.8785 202.073 16.8045 201.909 16.6916 201.773C16.3681 201.427 15.7837 201.577 15.3872 201.849C14.1585 202.717 13.822 204.394 13.8089 205.903C13.6863 205.358 13.7907 204.792 13.7855 204.234C13.7802 203.676 13.6315 203.055 13.162 202.756C12.8698 202.598 12.5414 202.52 12.2098 202.531C11.6593 202.51 11.0437 202.567 10.6654 202.971C10.1985 203.477 10.3185 204.323 10.7254 204.876C11.1324 205.429 11.7533 205.78 12.3246 206.163C12.7827 206.437 13.1733 206.811 13.4672 207.258C13.5011 207.32 13.5299 207.385 13.5533 207.452H17.0151C17.7952 207.059 18.5183 206.561 19.1647 205.971Z" fill="#9347B2"/>
<path d="M39.1834 198.11C44.4292 198.11 48.6818 197.387 48.6818 196.495C48.6818 195.604 44.4292 194.881 39.1834 194.881C33.9376 194.881 29.6851 195.604 29.6851 196.495C29.6851 197.387 33.9376 198.11 39.1834 198.11Z" fill="#9347B2"/>
<path d="M43.1113 193.856C43.5446 193.501 43.8602 193.022 44.0166 192.483C44.134 191.938 43.9018 191.286 43.3826 191.086C42.8035 190.861 42.1826 191.267 41.7105 191.676C41.2383 192.085 40.7009 192.551 40.0852 192.462C40.402 192.173 40.6389 191.807 40.7728 191.398C40.9068 190.99 40.9332 190.554 40.8496 190.132C40.8226 189.959 40.7486 189.795 40.6357 189.661C40.3148 189.312 39.7304 189.462 39.3443 189.734C38.1156 190.604 37.7791 192.279 37.7661 193.788C37.6408 193.243 37.7452 192.677 37.7426 192.119C37.74 191.561 37.5861 190.942 37.1191 190.641C36.8271 190.483 36.4984 190.406 36.1669 190.418C35.6139 190.397 34.9982 190.452 34.6225 190.858C34.153 191.362 34.2756 192.208 34.6825 192.764C35.0895 193.319 35.7104 193.665 36.2817 194.05C36.7392 194.324 37.1296 194.698 37.4243 195.143C37.4588 195.206 37.4868 195.271 37.5078 195.34H40.9696C41.7471 194.945 42.4676 194.446 43.1113 193.856Z" fill="#9347B2"/>
<path d="M147.035 59.3812V88.3471C147.036 88.7289 146.962 89.1072 146.816 89.4601C146.671 89.813 146.458 90.1337 146.189 90.4037C145.921 90.6737 145.601 90.8877 145.25 91.0336C144.899 91.1794 144.522 91.2541 144.142 91.2534H141.035V56.4775H144.142C144.522 56.4769 144.898 56.5515 145.25 56.6971C145.601 56.8428 145.92 57.0566 146.188 57.3263C146.457 57.596 146.67 57.9164 146.816 58.269C146.961 58.6216 147.036 58.9996 147.035 59.3812Z" fill="#C7CCE1"/>
<path opacity="0.2" d="M144.707 56.5326V91.1983C144.521 91.2352 144.331 91.2536 144.141 91.2534H143.667V56.4775H144.141C144.331 56.4773 144.521 56.4957 144.707 56.5326Z" fill="black"/>
<path d="M133.319 101.586H122.117V191.815H133.319V101.586Z" fill="#DCDFED"/>
<path d="M135.983 201.448H118.168V203.961H135.983V201.448Z" fill="#C7CCE1"/>
<path opacity="0.1" d="M135.983 201.448H118.168V202.858H135.983V201.448Z" fill="black"/>
<path opacity="0.1" d="M133.319 190.03H122.117V191.812H133.319V190.03Z" fill="black"/>
<path d="M114.25 190.4H139.899C141.294 190.4 142.674 190.676 143.963 191.212C145.251 191.748 146.421 192.533 147.407 193.524C148.393 194.514 149.175 195.69 149.709 196.984C150.242 198.278 150.517 199.665 150.517 201.066V202.706H103.633V201.066C103.633 199.665 103.907 198.278 104.441 196.984C104.975 195.69 105.757 194.514 106.743 193.524C107.729 192.533 108.899 191.748 110.187 191.212C111.475 190.676 112.856 190.4 114.25 190.4Z" fill="#DCDFED"/>
<path opacity="0.1" d="M133.319 114.008H122.117V124.831H133.319V114.008Z" fill="black"/>
<path opacity="0.1" d="M133.319 113.272H122.117V124.095H133.319V113.272Z" fill="black"/>
<path d="M134.485 113.639H121.079V124.462H134.485V113.639Z" fill="#DCDFED"/>
<path d="M139.353 94.7883V99.2801C139.353 100.398 138.911 101.47 138.124 102.26C137.337 103.05 136.27 103.494 135.158 103.494H120.288C119.176 103.494 118.109 103.05 117.322 102.26C116.535 101.47 116.093 100.398 116.093 99.2801V94.7883C116.094 94.2353 116.202 93.6877 116.413 93.1769C116.624 92.6661 116.933 92.202 117.323 91.8112C117.713 91.4204 118.175 91.1105 118.684 90.8992C119.192 90.6878 119.738 90.5792 120.288 90.5796H135.158C135.708 90.5792 136.254 90.6878 136.762 90.8992C137.271 91.1105 137.733 91.4204 138.123 91.8112C138.513 92.202 138.822 92.6661 139.033 93.1769C139.244 93.6877 139.352 94.2353 139.353 94.7883Z" fill="#C7CCE1"/>
<path opacity="0.1" d="M139.354 94.7883V95.2469C137.988 97.0451 136.228 98.5025 134.21 99.5056C132.192 100.509 129.971 101.031 127.72 101.031C125.469 101.031 123.248 100.509 121.23 99.5056C119.212 98.5025 117.452 97.0451 116.086 95.2469V94.7883C116.087 94.2353 116.196 93.6877 116.407 93.1769C116.618 92.6661 116.927 92.202 117.316 91.8112C117.706 91.4204 118.168 91.1105 118.677 90.8992C119.186 90.6878 119.731 90.5793 120.281 90.5796H135.151C135.702 90.5782 136.248 90.6861 136.758 90.8969C137.268 91.1078 137.731 91.4175 138.121 91.8084C138.512 92.1994 138.821 92.6638 139.033 93.1751C139.244 93.6864 139.353 94.2346 139.354 94.7883Z" fill="black"/>
<path d="M114.272 52.9368H141.17C141.484 52.9368 141.784 53.0618 142.006 53.2845C142.227 53.5071 142.352 53.8091 142.352 54.1239V87.9301C142.352 91.3087 141.016 94.5489 138.638 96.9379C136.26 99.3269 133.034 100.669 129.671 100.669H125.771C122.408 100.669 119.182 99.3269 116.804 96.9379C114.426 94.5489 113.09 91.3087 113.09 87.9301V54.1239C113.09 53.8091 113.214 53.5071 113.436 53.2845C113.658 53.0618 113.958 52.9368 114.272 52.9368Z" fill="#C7CCE1"/>
<path d="M119.242 35.4758H136.199C137.393 35.4758 138.539 35.9523 139.383 36.8006C140.227 37.6489 140.702 38.7994 140.702 39.999V52.958C140.702 53.3903 140.531 53.8049 140.227 54.1106C139.922 54.4163 139.51 54.5881 139.079 54.5881H116.362C116.149 54.5881 115.938 54.5459 115.741 54.464C115.545 54.3821 115.366 54.262 115.215 54.1106C115.064 53.9593 114.945 53.7796 114.863 53.5818C114.782 53.384 114.74 53.1721 114.74 52.958V39.9964C114.74 38.7967 115.214 37.6462 116.059 36.798C116.903 35.9497 118.048 35.4731 119.242 35.4731V35.4758Z" fill="#C7CCE1"/>
<path opacity="0.2" d="M138.127 48.8826H117.803V50.2348H138.127V48.8826Z" fill="black"/>
<path opacity="0.1" d="M139.351 57.2764H116.089V74.2345H139.351V57.2764Z" fill="black"/>
<path d="M139.351 56.9072H116.089V73.8654H139.351V56.9072Z" fill="url(#paint7_linear)"/>
<g opacity="0.1">
<path opacity="0.1" d="M121.245 76.7712H116.424C116.311 76.7712 116.218 76.8639 116.218 76.9783V78.4406C116.218 78.5549 116.311 78.6476 116.424 78.6476H121.245C121.359 78.6476 121.451 78.5549 121.451 78.4406V76.9783C121.451 76.8639 121.359 76.7712 121.245 76.7712Z" fill="black"/>
<path opacity="0.1" d="M127.168 76.7712H122.347C122.233 76.7712 122.141 76.8639 122.141 76.9783V78.4406C122.141 78.5549 122.233 78.6476 122.347 78.6476H127.168C127.282 78.6476 127.374 78.5549 127.374 78.4406V76.9783C127.374 76.8639 127.282 76.7712 127.168 76.7712Z" fill="black"/>
<path opacity="0.1" d="M133.089 76.7712H128.268C128.154 76.7712 128.062 76.8639 128.062 76.9783V78.4406C128.062 78.5549 128.154 78.6476 128.268 78.6476H133.089C133.203 78.6476 133.295 78.5549 133.295 78.4406V76.9783C133.295 76.8639 133.203 76.7712 133.089 76.7712Z" fill="black"/>
<path opacity="0.1" d="M139.014 76.7712H134.193C134.08 76.7712 133.987 76.8639 133.987 76.9783V78.4406C133.987 78.5549 134.08 78.6476 134.193 78.6476H139.014C139.128 78.6476 139.22 78.5549 139.22 78.4406V76.9783C139.22 76.8639 139.128 76.7712 139.014 76.7712Z" fill="black"/>
<path opacity="0.1" d="M121.245 80.4456H116.424C116.311 80.4456 116.218 80.5382 116.218 80.6526V82.1149C116.218 82.2292 116.311 82.3219 116.424 82.3219H121.245C121.359 82.3219 121.451 82.2292 121.451 82.1149V80.6526C121.451 80.5382 121.359 80.4456 121.245 80.4456Z" fill="black"/>
<path opacity="0.1" d="M127.168 80.4456H122.347C122.233 80.4456 122.141 80.5382 122.141 80.6526V82.1149C122.141 82.2292 122.233 82.3219 122.347 82.3219H127.168C127.282 82.3219 127.374 82.2292 127.374 82.1149V80.6526C127.374 80.5382 127.282 80.4456 127.168 80.4456Z" fill="black"/>
<path opacity="0.1" d="M133.089 80.4456H128.268C128.154 80.4456 128.062 80.5382 128.062 80.6526V82.1149C128.062 82.2292 128.154 82.3219 128.268 82.3219H133.089C133.203 82.3219 133.295 82.2292 133.295 82.1149V80.6526C133.295 80.5382 133.203 80.4456 133.089 80.4456Z" fill="black"/>
<path opacity="0.1" d="M121.245 84.0278H116.424C116.311 84.0278 116.218 84.1205 116.218 84.2349V85.6972C116.218 85.8115 116.311 85.9042 116.424 85.9042H121.245C121.359 85.9042 121.451 85.8115 121.451 85.6972V84.2349C121.451 84.1205 121.359 84.0278 121.245 84.0278Z" fill="black"/>
<path opacity="0.1" d="M127.168 84.0278H122.347C122.233 84.0278 122.141 84.1205 122.141 84.2349V85.6972C122.141 85.8115 122.233 85.9042 122.347 85.9042H127.168C127.282 85.9042 127.374 85.8115 127.374 85.6972V84.2349C127.374 84.1205 127.282 84.0278 127.168 84.0278Z" fill="black"/>
<path opacity="0.1" d="M133.089 84.0278H128.268C128.154 84.0278 128.062 84.1205 128.062 84.2349V85.6972C128.062 85.8115 128.154 85.9042 128.268 85.9042H133.089C133.203 85.9042 133.295 85.8115 133.295 85.6972V84.2349C133.295 84.1205 133.203 84.0278 133.089 84.0278Z" fill="black"/>
<path opacity="0.1" d="M121.245 87.9797H116.424C116.311 87.9797 116.218 88.0724 116.218 88.1868V89.6491C116.218 89.7634 116.311 89.8561 116.424 89.8561H121.245C121.359 89.8561 121.451 89.7634 121.451 89.6491V88.1868C121.451 88.0724 121.359 87.9797 121.245 87.9797Z" fill="black"/>
<path opacity="0.1" d="M127.168 87.9797H122.347C122.233 87.9797 122.141 88.0724 122.141 88.1868V89.6491C122.141 89.7634 122.233 89.8561 122.347 89.8561H127.168C127.282 89.8561 127.374 89.7634 127.374 89.6491V88.1868C127.374 88.0724 127.282 87.9797 127.168 87.9797Z" fill="black"/>
<path opacity="0.1" d="M133.089 87.9797H128.268C128.154 87.9797 128.062 88.0724 128.062 88.1868V89.6491C128.062 89.7634 128.154 89.8561 128.268 89.8561H133.089C133.203 89.8561 133.295 89.7634 133.295 89.6491V88.1868C133.295 88.0724 133.203 87.9797 133.089 87.9797Z" fill="black"/>
<path opacity="0.1" d="M139.014 80.4456H134.193C134.08 80.4456 133.987 80.5382 133.987 80.6526V82.1149C133.987 82.2292 134.08 82.3219 134.193 82.3219H139.014C139.128 82.3219 139.22 82.2292 139.22 82.1149V80.6526C139.22 80.5382 139.128 80.4456 139.014 80.4456Z" fill="black"/>
<path opacity="0.1" d="M138.431 83.8259H134.821C134.537 83.8259 134.307 84.0571 134.307 84.3422V89.9975C134.307 90.2827 134.537 90.5138 134.821 90.5138H138.431C138.715 90.5138 138.945 90.2827 138.945 89.9975V84.3422C138.945 84.0571 138.715 83.8259 138.431 83.8259Z" fill="black"/>
</g>
<path d="M121.245 76.4021H116.424C116.311 76.4021 116.218 76.4948 116.218 76.6091V78.0714C116.218 78.1858 116.311 78.2785 116.424 78.2785H121.245C121.359 78.2785 121.451 78.1858 121.451 78.0714V76.6091C121.451 76.4948 121.359 76.4021 121.245 76.4021Z" fill="#F2F3F3"/>
<path d="M127.167 76.4021H122.346C122.232 76.4021 122.14 76.4948 122.14 76.6091V78.0714C122.14 78.1858 122.232 78.2785 122.346 78.2785H127.167C127.28 78.2785 127.373 78.1858 127.373 78.0714V76.6091C127.373 76.4948 127.28 76.4021 127.167 76.4021Z" fill="#F2F3F3"/>
<path d="M133.09 76.4021H128.269C128.155 76.4021 128.062 76.4948 128.062 76.6091V78.0714C128.062 78.1858 128.155 78.2785 128.269 78.2785H133.09C133.203 78.2785 133.296 78.1858 133.296 78.0714V76.6091C133.296 76.4948 133.203 76.4021 133.09 76.4021Z" fill="#F2F3F3"/>
<path d="M139.013 76.4021H134.192C134.078 76.4021 133.986 76.4948 133.986 76.6091V78.0714C133.986 78.1858 134.078 78.2785 134.192 78.2785H139.013C139.127 78.2785 139.219 78.1858 139.219 78.0714V76.6091C139.219 76.4948 139.127 76.4021 139.013 76.4021Z" fill="#D44F6A"/>
<path d="M121.245 80.0759H116.424C116.311 80.0759 116.218 80.1686 116.218 80.283V81.7453C116.218 81.8596 116.311 81.9523 116.424 81.9523H121.245C121.359 81.9523 121.451 81.8596 121.451 81.7453V80.283C121.451 80.1686 121.359 80.0759 121.245 80.0759Z" fill="#F2F3F3"/>
<path d="M127.167 80.0759H122.346C122.232 80.0759 122.14 80.1686 122.14 80.283V81.7453C122.14 81.8596 122.232 81.9523 122.346 81.9523H127.167C127.28 81.9523 127.373 81.8596 127.373 81.7453V80.283C127.373 80.1686 127.28 80.0759 127.167 80.0759Z" fill="#F2F3F3"/>
<path d="M133.09 80.0759H128.269C128.155 80.0759 128.062 80.1686 128.062 80.283V81.7453C128.062 81.8596 128.155 81.9523 128.269 81.9523H133.09C133.203 81.9523 133.296 81.8596 133.296 81.7453V80.283C133.296 80.1686 133.203 80.0759 133.09 80.0759Z" fill="#F2F3F3"/>
<path d="M121.245 83.6587H116.424C116.311 83.6587 116.218 83.7514 116.218 83.8657V85.328C116.218 85.4424 116.311 85.5351 116.424 85.5351H121.245C121.359 85.5351 121.451 85.4424 121.451 85.328V83.8657C121.451 83.7514 121.359 83.6587 121.245 83.6587Z" fill="#F2F3F3"/>
<path d="M127.167 83.6587H122.346C122.232 83.6587 122.14 83.7514 122.14 83.8657V85.328C122.14 85.4424 122.232 85.5351 122.346 85.5351H127.167C127.28 85.5351 127.373 85.4424 127.373 85.328V83.8657C127.373 83.7514 127.28 83.6587 127.167 83.6587Z" fill="#F2F3F3"/>
<path d="M133.09 83.6587H128.269C128.155 83.6587 128.062 83.7514 128.062 83.8657V85.328C128.062 85.4424 128.155 85.5351 128.269 85.5351H133.09C133.203 85.5351 133.296 85.4424 133.296 85.328V83.8657C133.296 83.7514 133.203 83.6587 133.09 83.6587Z" fill="#F2F3F3"/>
<path d="M121.245 87.6106H116.424C116.311 87.6106 116.218 87.7033 116.218 87.8176V89.2799C116.218 89.3943 116.311 89.487 116.424 89.487H121.245C121.359 89.487 121.451 89.3943 121.451 89.2799V87.8176C121.451 87.7033 121.359 87.6106 121.245 87.6106Z" fill="#F2F3F3"/>
<path d="M127.167 87.6106H122.346C122.232 87.6106 122.14 87.7033 122.14 87.8176V89.2799C122.14 89.3943 122.232 89.487 122.346 89.487H127.167C127.28 89.487 127.373 89.3943 127.373 89.2799V87.8176C127.373 87.7033 127.28 87.6106 127.167 87.6106Z" fill="#F2F3F3"/>
<path d="M133.09 87.6106H128.269C128.155 87.6106 128.062 87.7033 128.062 87.8176V89.2799C128.062 89.3943 128.155 89.487 128.269 89.487H133.09C133.203 89.487 133.296 89.3943 133.296 89.2799V87.8176C133.296 87.7033 133.203 87.6106 133.09 87.6106Z" fill="#F2F3F3"/>
<path d="M139.013 80.0759H134.192C134.078 80.0759 133.986 80.1686 133.986 80.283V81.7453C133.986 81.8596 134.078 81.9523 134.192 81.9523H139.013C139.127 81.9523 139.219 81.8596 139.219 81.7453V80.283C139.219 80.1686 139.127 80.0759 139.013 80.0759Z" fill="#FECB42"/>
<path d="M138.431 83.4592H134.821C134.537 83.4592 134.307 83.6904 134.307 83.9755V89.6308C134.307 89.9159 134.537 90.1471 134.821 90.1471H138.431C138.715 90.1471 138.945 89.9159 138.945 89.6308V83.9755C138.945 83.6904 138.715 83.4592 138.431 83.4592Z" fill="#97D25E"/>
<path d="M130.193 71.8054H127.686V72.1068H130.193V71.8054Z" fill="#C7CCE1"/>
<path d="M133.705 71.8054H131.198V72.1068H133.705V71.8054Z" fill="#C7CCE1"/>
<path d="M137.216 71.8054H134.709V72.1068H137.216V71.8054Z" fill="#C7CCE1"/>
</g>
<defs>
<linearGradient id="paint0_linear" x1="165.078" y1="-20.2267" x2="170.812" y2="247.59" gradientUnits="userSpaceOnUse">
<stop stop-color="#FD749B"/>
<stop offset="1" stop-color="#281AC8"/>
</linearGradient>
<linearGradient id="paint1_linear" x1="163.087" y1="201.274" x2="163.129" y2="219.24" gradientUnits="userSpaceOnUse">
<stop stop-color="#FD749B"/>
<stop offset="1" stop-color="#281AC8"/>
</linearGradient>
<linearGradient id="paint2_linear" x1="202.272" y1="211.034" x2="202.272" y2="-2.33368e-06" gradientUnits="userSpaceOnUse">
<stop stop-color="#808080" stop-opacity="0.25"/>
<stop offset="0.54" stop-color="#808080" stop-opacity="0.12"/>
<stop offset="1" stop-color="#808080" stop-opacity="0.1"/>
</linearGradient>
<linearGradient id="paint3_linear" x1="155.863" y1="48.4831" x2="157.023" y2="76.5946" gradientUnits="userSpaceOnUse">
<stop stop-color="#FD749B"/>
<stop offset="1" stop-color="#281AC8"/>
</linearGradient>
<linearGradient id="paint4_linear" x1="37.6293" y1="3.5113" x2="38.6993" y2="40.5766" gradientUnits="userSpaceOnUse">
<stop stop-color="#FD749B"/>
<stop offset="1" stop-color="#281AC8"/>
</linearGradient>
<linearGradient id="paint5_linear" x1="45.1261" y1="53.0561" x2="45.6095" y2="69.803" gradientUnits="userSpaceOnUse">
<stop stop-color="#FD749B"/>
<stop offset="1" stop-color="#281AC8"/>
</linearGradient>
<linearGradient id="paint6_linear" x1="5.84533" y1="9.97275" x2="6.32897" y2="26.724" gradientUnits="userSpaceOnUse">
<stop stop-color="#FD749B"/>
<stop offset="1" stop-color="#281AC8"/>
</linearGradient>
<linearGradient id="paint7_linear" x1="128.883" y1="54.2379" x2="129.581" y2="84.2931" gradientUnits="userSpaceOnUse">
<stop stop-color="#FD749B"/>
<stop offset="1" stop-color="#281AC8"/>
</linearGradient>
<clipPath id="clip0">
<rect width="271" height="213" fill="white" transform="translate(0.109375)"/>
</clipPath>
</defs>
</svg>
