<svg width="165" height="37" viewBox="0 0 165 37" fill="none" xmlns="http://www.w3.org/2000/svg">
<mask id="path-1-outside-1" maskUnits="userSpaceOnUse" x="52.937" y="13.0786" width="112" height="20" fill="black">
<rect fill="white" x="52.937" y="13.0786" width="112" height="20"/>
<path d="M53.937 23.7728C53.937 22.1728 54.3 20.7375 55.0259 19.4669C55.7518 18.1806 56.7381 17.1767 57.9848 16.4551C59.2473 15.7335 60.6439 15.3727 62.1746 15.3727C63.9736 15.3727 65.5438 15.8041 66.8852 16.6669C68.2266 17.5296 69.205 18.7532 69.8204 20.3375H67.2403C66.7826 19.3492 66.1198 18.5884 65.2519 18.0551C64.3997 17.5218 63.3739 17.2551 62.1746 17.2551C61.0226 17.2551 59.989 17.5218 59.0737 18.0551C58.1584 18.5884 57.4404 19.3492 56.9196 20.3375C56.3988 21.31 56.1384 22.4551 56.1384 23.7728C56.1384 25.0748 56.3988 26.2199 56.9196 27.2081C57.4404 28.1807 58.1584 28.9336 59.0737 29.467C59.989 30.0003 61.0226 30.267 62.1746 30.267C63.3739 30.267 64.3997 30.0081 65.2519 29.4905C66.1198 28.9571 66.7826 28.1964 67.2403 27.2081H69.8204C69.205 28.7768 68.2266 29.9924 66.8852 30.8552C65.5438 31.7023 63.9736 32.1258 62.1746 32.1258C60.6439 32.1258 59.2473 31.7729 57.9848 31.067C56.7381 30.3454 55.7518 29.3493 55.0259 28.0787C54.3 26.8081 53.937 25.3728 53.937 23.7728Z"/>
<path d="M78.6844 32.1964C77.4693 32.1964 76.3646 31.9219 75.3704 31.3728C74.392 30.8238 73.6187 30.0473 73.0506 29.0434C72.4983 28.0238 72.2221 26.8473 72.2221 25.514C72.2221 24.1963 72.5062 23.0355 73.0743 22.0316C73.6582 21.012 74.4472 20.2355 75.4414 19.7022C76.4356 19.1532 77.5482 18.8786 78.7791 18.8786C80.01 18.8786 81.1225 19.1532 82.1167 19.7022C83.1109 20.2355 83.892 21.0042 84.4602 22.0081C85.0441 23.012 85.336 24.1806 85.336 25.514C85.336 26.8473 85.0362 28.0238 84.4365 29.0434C83.8526 30.0473 83.0557 30.8238 82.0457 31.3728C81.0357 31.9219 79.9153 32.1964 78.6844 32.1964ZM78.6844 30.314C79.4576 30.314 80.1836 30.1336 80.8621 29.7728C81.5407 29.4121 82.0851 28.8709 82.4954 28.1493C82.9215 27.4277 83.1346 26.5493 83.1346 25.514C83.1346 24.4787 82.9294 23.6002 82.5191 22.8787C82.1088 22.1571 81.5723 21.6238 80.9095 21.2787C80.2467 20.9179 79.5287 20.7375 78.7554 20.7375C77.9663 20.7375 77.2404 20.9179 76.5776 21.2787C75.9306 21.6238 75.4099 22.1571 75.0153 22.8787C74.6208 23.6002 74.4236 24.4787 74.4236 25.514C74.4236 26.565 74.6129 27.4513 74.9917 28.1728C75.3862 28.8944 75.9069 29.4356 76.554 29.7964C77.201 30.1415 77.9111 30.314 78.6844 30.314Z"/>
<path d="M89.2808 16.9963C88.8705 16.9963 88.5233 16.8551 88.2392 16.5727C87.9552 16.2904 87.8132 15.9453 87.8132 15.5374C87.8132 15.1296 87.9552 14.7845 88.2392 14.5021C88.5233 14.2198 88.8705 14.0786 89.2808 14.0786C89.6753 14.0786 90.0067 14.2198 90.275 14.5021C90.559 14.7845 90.701 15.1296 90.701 15.5374C90.701 15.9453 90.559 16.2904 90.275 16.5727C90.0067 16.8551 89.6753 16.9963 89.2808 16.9963ZM90.3223 19.0904V31.9846H88.1682V19.0904H90.3223Z"/>
<path d="M100.314 18.8551C101.892 18.8551 103.17 19.3336 104.149 20.2904C105.127 21.2316 105.616 22.5963 105.616 24.3846V31.9846H103.486V24.6904C103.486 23.4042 103.162 22.4238 102.515 21.7493C101.868 21.0591 100.984 20.714 99.864 20.714C98.7278 20.714 97.8204 21.0669 97.1418 21.7728C96.479 22.4787 96.1477 23.5061 96.1477 24.8552V31.9846H93.9936V19.0904H96.1477V20.9257C96.5737 20.2669 97.1497 19.7571 97.8757 19.3963C98.6174 19.0355 99.4301 18.8551 100.314 18.8551Z"/>
<path d="M117.396 23.5375C117.996 23.6316 118.54 23.8748 119.029 24.2669C119.534 24.6591 119.929 25.1454 120.213 25.7258C120.513 26.3061 120.663 26.9258 120.663 27.5846C120.663 28.416 120.45 29.1689 120.024 29.8434C119.598 30.5023 118.974 31.0277 118.154 31.4199C117.349 31.7964 116.394 31.9846 115.289 31.9846H109.135V15.5845H115.053C116.173 15.5845 117.128 15.7727 117.917 16.1492C118.706 16.51 119.298 17.0041 119.692 17.6316C120.087 18.259 120.284 18.9649 120.284 19.7492C120.284 20.7218 120.016 21.5296 119.479 22.1728C118.958 22.8002 118.264 23.2551 117.396 23.5375ZM111.289 22.6669H114.911C115.921 22.6669 116.702 22.4316 117.254 21.961C117.806 21.4904 118.083 20.8394 118.083 20.0081C118.083 19.1767 117.806 18.5257 117.254 18.0551C116.702 17.5845 115.905 17.3492 114.863 17.3492H111.289V22.6669ZM115.1 30.2199C116.173 30.2199 117.009 29.9689 117.609 29.467C118.209 28.965 118.509 28.2669 118.509 27.3728C118.509 26.463 118.193 25.7493 117.562 25.2316C116.931 24.6983 116.086 24.4316 115.029 24.4316H111.289V30.2199H115.1Z"/>
<path d="M122.847 25.4905C122.847 24.1728 123.115 23.0199 123.652 22.0316C124.189 21.0277 124.922 20.2512 125.853 19.7022C126.8 19.1532 127.85 18.8786 129.002 18.8786C130.138 18.8786 131.124 19.1218 131.961 19.6081C132.797 20.0943 133.42 20.7061 133.831 21.4434V19.0904H136.008V31.9846H133.831V29.5846C133.405 30.3375 132.765 30.965 131.913 31.467C131.077 31.9532 130.098 32.1964 128.978 32.1964C127.826 32.1964 126.784 31.914 125.853 31.3493C124.922 30.7846 124.189 29.9924 123.652 28.9728C123.115 27.9532 122.847 26.7924 122.847 25.4905ZM133.831 25.514C133.831 24.5414 133.633 23.6944 133.239 22.9728C132.844 22.2512 132.308 21.7022 131.629 21.3257C130.966 20.9336 130.233 20.7375 129.428 20.7375C128.623 20.7375 127.889 20.9257 127.226 21.3022C126.564 21.6787 126.035 22.2277 125.64 22.9493C125.246 23.6708 125.049 24.5179 125.049 25.4905C125.049 26.4787 125.246 27.3414 125.64 28.0787C126.035 28.8003 126.564 29.3571 127.226 29.7493C127.889 30.1258 128.623 30.314 129.428 30.314C130.233 30.314 130.966 30.1258 131.629 29.7493C132.308 29.3571 132.844 28.8003 133.239 28.0787C133.633 27.3414 133.831 26.4865 133.831 25.514Z"/>
<path d="M144.241 32.1964C143.247 32.1964 142.355 32.0317 141.566 31.7023C140.777 31.3572 140.154 30.8866 139.696 30.2905C139.238 29.6787 138.986 28.9807 138.938 28.1964H141.164C141.227 28.8395 141.526 29.365 142.063 29.7728C142.615 30.1807 143.333 30.3846 144.217 30.3846C145.038 30.3846 145.685 30.2042 146.158 29.8434C146.632 29.4826 146.868 29.0277 146.868 28.4787C146.868 27.914 146.616 27.4983 146.111 27.2316C145.606 26.9493 144.825 26.6748 143.767 26.4081C142.805 26.1571 142.016 25.9061 141.4 25.6552C140.801 25.3885 140.28 25.0042 139.838 24.5022C139.412 23.9846 139.199 23.31 139.199 22.4787C139.199 21.8198 139.396 21.2159 139.791 20.6669C140.185 20.1179 140.745 19.6865 141.471 19.3728C142.197 19.0434 143.026 18.8786 143.957 18.8786C145.393 18.8786 146.553 19.2394 147.436 19.961C148.32 20.6826 148.794 21.6708 148.857 22.9257H146.703C146.655 22.2512 146.379 21.71 145.874 21.3022C145.385 20.8943 144.722 20.6904 143.886 20.6904C143.112 20.6904 142.497 20.8551 142.039 21.1845C141.582 21.514 141.353 21.9453 141.353 22.4787C141.353 22.9022 141.487 23.2551 141.755 23.5375C142.039 23.8042 142.387 24.0238 142.797 24.1963C143.223 24.3532 143.807 24.5336 144.549 24.7375C145.48 24.9885 146.237 25.2395 146.821 25.4905C147.405 25.7258 147.902 26.0865 148.312 26.5728C148.738 27.0591 148.959 27.6944 148.975 28.4787C148.975 29.1846 148.778 29.8199 148.383 30.3846C147.989 30.9493 147.429 31.3964 146.703 31.7258C145.992 32.0395 145.172 32.1964 144.241 32.1964Z"/>
<path d="M163.851 25.0434C163.851 25.4512 163.828 25.8826 163.78 26.3375H153.412C153.491 27.6081 153.925 28.6042 154.714 29.3258C155.519 30.0317 156.49 30.3846 157.626 30.3846C158.557 30.3846 159.33 30.1728 159.946 29.7493C160.577 29.3101 161.019 28.7297 161.271 28.0081H163.591C163.244 29.2473 162.55 30.2591 161.508 31.0434C160.466 31.8121 159.172 32.1964 157.626 32.1964C156.395 32.1964 155.29 31.9219 154.312 31.3728C153.349 30.8238 152.592 30.0473 152.04 29.0434C151.487 28.0238 151.211 26.8473 151.211 25.514C151.211 24.1806 151.479 23.012 152.016 22.0081C152.552 21.0042 153.302 20.2355 154.265 19.7022C155.243 19.1532 156.363 18.8786 157.626 18.8786C158.857 18.8786 159.946 19.1453 160.893 19.6787C161.839 20.212 162.565 20.9492 163.07 21.8904C163.591 22.8159 163.851 23.8669 163.851 25.0434ZM161.626 24.5963C161.626 23.7806 161.445 23.0826 161.082 22.5022C160.719 21.9061 160.222 21.4591 159.591 21.161C158.975 20.8473 158.289 20.6904 157.531 20.6904C156.442 20.6904 155.511 21.0355 154.738 21.7257C153.981 22.4159 153.547 23.3728 153.436 24.5963H161.626Z"/>
</mask>
<path d="M53.937 23.7728C53.937 22.1728 54.3 20.7375 55.0259 19.4669C55.7518 18.1806 56.7381 17.1767 57.9848 16.4551C59.2473 15.7335 60.6439 15.3727 62.1746 15.3727C63.9736 15.3727 65.5438 15.8041 66.8852 16.6669C68.2266 17.5296 69.205 18.7532 69.8204 20.3375H67.2403C66.7826 19.3492 66.1198 18.5884 65.2519 18.0551C64.3997 17.5218 63.3739 17.2551 62.1746 17.2551C61.0226 17.2551 59.989 17.5218 59.0737 18.0551C58.1584 18.5884 57.4404 19.3492 56.9196 20.3375C56.3988 21.31 56.1384 22.4551 56.1384 23.7728C56.1384 25.0748 56.3988 26.2199 56.9196 27.2081C57.4404 28.1807 58.1584 28.9336 59.0737 29.467C59.989 30.0003 61.0226 30.267 62.1746 30.267C63.3739 30.267 64.3997 30.0081 65.2519 29.4905C66.1198 28.9571 66.7826 28.1964 67.2403 27.2081H69.8204C69.205 28.7768 68.2266 29.9924 66.8852 30.8552C65.5438 31.7023 63.9736 32.1258 62.1746 32.1258C60.6439 32.1258 59.2473 31.7729 57.9848 31.067C56.7381 30.3454 55.7518 29.3493 55.0259 28.0787C54.3 26.8081 53.937 25.3728 53.937 23.7728Z" fill="white"/>
<path d="M78.6844 32.1964C77.4693 32.1964 76.3646 31.9219 75.3704 31.3728C74.392 30.8238 73.6187 30.0473 73.0506 29.0434C72.4983 28.0238 72.2221 26.8473 72.2221 25.514C72.2221 24.1963 72.5062 23.0355 73.0743 22.0316C73.6582 21.012 74.4472 20.2355 75.4414 19.7022C76.4356 19.1532 77.5482 18.8786 78.7791 18.8786C80.01 18.8786 81.1225 19.1532 82.1167 19.7022C83.1109 20.2355 83.892 21.0042 84.4602 22.0081C85.0441 23.012 85.336 24.1806 85.336 25.514C85.336 26.8473 85.0362 28.0238 84.4365 29.0434C83.8526 30.0473 83.0557 30.8238 82.0457 31.3728C81.0357 31.9219 79.9153 32.1964 78.6844 32.1964ZM78.6844 30.314C79.4576 30.314 80.1836 30.1336 80.8621 29.7728C81.5407 29.4121 82.0851 28.8709 82.4954 28.1493C82.9215 27.4277 83.1346 26.5493 83.1346 25.514C83.1346 24.4787 82.9294 23.6002 82.5191 22.8787C82.1088 22.1571 81.5723 21.6238 80.9095 21.2787C80.2467 20.9179 79.5287 20.7375 78.7554 20.7375C77.9663 20.7375 77.2404 20.9179 76.5776 21.2787C75.9306 21.6238 75.4099 22.1571 75.0153 22.8787C74.6208 23.6002 74.4236 24.4787 74.4236 25.514C74.4236 26.565 74.6129 27.4513 74.9917 28.1728C75.3862 28.8944 75.9069 29.4356 76.554 29.7964C77.201 30.1415 77.9111 30.314 78.6844 30.314Z" fill="white"/>
<path d="M89.2808 16.9963C88.8705 16.9963 88.5233 16.8551 88.2392 16.5727C87.9552 16.2904 87.8132 15.9453 87.8132 15.5374C87.8132 15.1296 87.9552 14.7845 88.2392 14.5021C88.5233 14.2198 88.8705 14.0786 89.2808 14.0786C89.6753 14.0786 90.0067 14.2198 90.275 14.5021C90.559 14.7845 90.701 15.1296 90.701 15.5374C90.701 15.9453 90.559 16.2904 90.275 16.5727C90.0067 16.8551 89.6753 16.9963 89.2808 16.9963ZM90.3223 19.0904V31.9846H88.1682V19.0904H90.3223Z" fill="white"/>
<path d="M100.314 18.8551C101.892 18.8551 103.17 19.3336 104.149 20.2904C105.127 21.2316 105.616 22.5963 105.616 24.3846V31.9846H103.486V24.6904C103.486 23.4042 103.162 22.4238 102.515 21.7493C101.868 21.0591 100.984 20.714 99.864 20.714C98.7278 20.714 97.8204 21.0669 97.1418 21.7728C96.479 22.4787 96.1477 23.5061 96.1477 24.8552V31.9846H93.9936V19.0904H96.1477V20.9257C96.5737 20.2669 97.1497 19.7571 97.8757 19.3963C98.6174 19.0355 99.4301 18.8551 100.314 18.8551Z" fill="white"/>
<path d="M117.396 23.5375C117.996 23.6316 118.54 23.8748 119.029 24.2669C119.534 24.6591 119.929 25.1454 120.213 25.7258C120.513 26.3061 120.663 26.9258 120.663 27.5846C120.663 28.416 120.45 29.1689 120.024 29.8434C119.598 30.5023 118.974 31.0277 118.154 31.4199C117.349 31.7964 116.394 31.9846 115.289 31.9846H109.135V15.5845H115.053C116.173 15.5845 117.128 15.7727 117.917 16.1492C118.706 16.51 119.298 17.0041 119.692 17.6316C120.087 18.259 120.284 18.9649 120.284 19.7492C120.284 20.7218 120.016 21.5296 119.479 22.1728C118.958 22.8002 118.264 23.2551 117.396 23.5375ZM111.289 22.6669H114.911C115.921 22.6669 116.702 22.4316 117.254 21.961C117.806 21.4904 118.083 20.8394 118.083 20.0081C118.083 19.1767 117.806 18.5257 117.254 18.0551C116.702 17.5845 115.905 17.3492 114.863 17.3492H111.289V22.6669ZM115.1 30.2199C116.173 30.2199 117.009 29.9689 117.609 29.467C118.209 28.965 118.509 28.2669 118.509 27.3728C118.509 26.463 118.193 25.7493 117.562 25.2316C116.931 24.6983 116.086 24.4316 115.029 24.4316H111.289V30.2199H115.1Z" fill="white"/>
<path d="M122.847 25.4905C122.847 24.1728 123.115 23.0199 123.652 22.0316C124.189 21.0277 124.922 20.2512 125.853 19.7022C126.8 19.1532 127.85 18.8786 129.002 18.8786C130.138 18.8786 131.124 19.1218 131.961 19.6081C132.797 20.0943 133.42 20.7061 133.831 21.4434V19.0904H136.008V31.9846H133.831V29.5846C133.405 30.3375 132.765 30.965 131.913 31.467C131.077 31.9532 130.098 32.1964 128.978 32.1964C127.826 32.1964 126.784 31.914 125.853 31.3493C124.922 30.7846 124.189 29.9924 123.652 28.9728C123.115 27.9532 122.847 26.7924 122.847 25.4905ZM133.831 25.514C133.831 24.5414 133.633 23.6944 133.239 22.9728C132.844 22.2512 132.308 21.7022 131.629 21.3257C130.966 20.9336 130.233 20.7375 129.428 20.7375C128.623 20.7375 127.889 20.9257 127.226 21.3022C126.564 21.6787 126.035 22.2277 125.64 22.9493C125.246 23.6708 125.049 24.5179 125.049 25.4905C125.049 26.4787 125.246 27.3414 125.64 28.0787C126.035 28.8003 126.564 29.3571 127.226 29.7493C127.889 30.1258 128.623 30.314 129.428 30.314C130.233 30.314 130.966 30.1258 131.629 29.7493C132.308 29.3571 132.844 28.8003 133.239 28.0787C133.633 27.3414 133.831 26.4865 133.831 25.514Z" fill="white"/>
<path d="M144.241 32.1964C143.247 32.1964 142.355 32.0317 141.566 31.7023C140.777 31.3572 140.154 30.8866 139.696 30.2905C139.238 29.6787 138.986 28.9807 138.938 28.1964H141.164C141.227 28.8395 141.526 29.365 142.063 29.7728C142.615 30.1807 143.333 30.3846 144.217 30.3846C145.038 30.3846 145.685 30.2042 146.158 29.8434C146.632 29.4826 146.868 29.0277 146.868 28.4787C146.868 27.914 146.616 27.4983 146.111 27.2316C145.606 26.9493 144.825 26.6748 143.767 26.4081C142.805 26.1571 142.016 25.9061 141.4 25.6552C140.801 25.3885 140.28 25.0042 139.838 24.5022C139.412 23.9846 139.199 23.31 139.199 22.4787C139.199 21.8198 139.396 21.2159 139.791 20.6669C140.185 20.1179 140.745 19.6865 141.471 19.3728C142.197 19.0434 143.026 18.8786 143.957 18.8786C145.393 18.8786 146.553 19.2394 147.436 19.961C148.32 20.6826 148.794 21.6708 148.857 22.9257H146.703C146.655 22.2512 146.379 21.71 145.874 21.3022C145.385 20.8943 144.722 20.6904 143.886 20.6904C143.112 20.6904 142.497 20.8551 142.039 21.1845C141.582 21.514 141.353 21.9453 141.353 22.4787C141.353 22.9022 141.487 23.2551 141.755 23.5375C142.039 23.8042 142.387 24.0238 142.797 24.1963C143.223 24.3532 143.807 24.5336 144.549 24.7375C145.48 24.9885 146.237 25.2395 146.821 25.4905C147.405 25.7258 147.902 26.0865 148.312 26.5728C148.738 27.0591 148.959 27.6944 148.975 28.4787C148.975 29.1846 148.778 29.8199 148.383 30.3846C147.989 30.9493 147.429 31.3964 146.703 31.7258C145.992 32.0395 145.172 32.1964 144.241 32.1964Z" fill="white"/>
<path d="M163.851 25.0434C163.851 25.4512 163.828 25.8826 163.78 26.3375H153.412C153.491 27.6081 153.925 28.6042 154.714 29.3258C155.519 30.0317 156.49 30.3846 157.626 30.3846C158.557 30.3846 159.33 30.1728 159.946 29.7493C160.577 29.3101 161.019 28.7297 161.271 28.0081H163.591C163.244 29.2473 162.55 30.2591 161.508 31.0434C160.466 31.8121 159.172 32.1964 157.626 32.1964C156.395 32.1964 155.29 31.9219 154.312 31.3728C153.349 30.8238 152.592 30.0473 152.04 29.0434C151.487 28.0238 151.211 26.8473 151.211 25.514C151.211 24.1806 151.479 23.012 152.016 22.0081C152.552 21.0042 153.302 20.2355 154.265 19.7022C155.243 19.1532 156.363 18.8786 157.626 18.8786C158.857 18.8786 159.946 19.1453 160.893 19.6787C161.839 20.212 162.565 20.9492 163.07 21.8904C163.591 22.8159 163.851 23.8669 163.851 25.0434ZM161.626 24.5963C161.626 23.7806 161.445 23.0826 161.082 22.5022C160.719 21.9061 160.222 21.4591 159.591 21.161C158.975 20.8473 158.289 20.6904 157.531 20.6904C156.442 20.6904 155.511 21.0355 154.738 21.7257C153.981 22.4159 153.547 23.3728 153.436 24.5963H161.626Z" fill="white"/>
<path d="M53.937 23.7728C53.937 22.1728 54.3 20.7375 55.0259 19.4669C55.7518 18.1806 56.7381 17.1767 57.9848 16.4551C59.2473 15.7335 60.6439 15.3727 62.1746 15.3727C63.9736 15.3727 65.5438 15.8041 66.8852 16.6669C68.2266 17.5296 69.205 18.7532 69.8204 20.3375H67.2403C66.7826 19.3492 66.1198 18.5884 65.2519 18.0551C64.3997 17.5218 63.3739 17.2551 62.1746 17.2551C61.0226 17.2551 59.989 17.5218 59.0737 18.0551C58.1584 18.5884 57.4404 19.3492 56.9196 20.3375C56.3988 21.31 56.1384 22.4551 56.1384 23.7728C56.1384 25.0748 56.3988 26.2199 56.9196 27.2081C57.4404 28.1807 58.1584 28.9336 59.0737 29.467C59.989 30.0003 61.0226 30.267 62.1746 30.267C63.3739 30.267 64.3997 30.0081 65.2519 29.4905C66.1198 28.9571 66.7826 28.1964 67.2403 27.2081H69.8204C69.205 28.7768 68.2266 29.9924 66.8852 30.8552C65.5438 31.7023 63.9736 32.1258 62.1746 32.1258C60.6439 32.1258 59.2473 31.7729 57.9848 31.067C56.7381 30.3454 55.7518 29.3493 55.0259 28.0787C54.3 26.8081 53.937 25.3728 53.937 23.7728Z" stroke="white" mask="url(#path-1-outside-1)"/>
<path d="M78.6844 32.1964C77.4693 32.1964 76.3646 31.9219 75.3704 31.3728C74.392 30.8238 73.6187 30.0473 73.0506 29.0434C72.4983 28.0238 72.2221 26.8473 72.2221 25.514C72.2221 24.1963 72.5062 23.0355 73.0743 22.0316C73.6582 21.012 74.4472 20.2355 75.4414 19.7022C76.4356 19.1532 77.5482 18.8786 78.7791 18.8786C80.01 18.8786 81.1225 19.1532 82.1167 19.7022C83.1109 20.2355 83.892 21.0042 84.4602 22.0081C85.0441 23.012 85.336 24.1806 85.336 25.514C85.336 26.8473 85.0362 28.0238 84.4365 29.0434C83.8526 30.0473 83.0557 30.8238 82.0457 31.3728C81.0357 31.9219 79.9153 32.1964 78.6844 32.1964ZM78.6844 30.314C79.4576 30.314 80.1836 30.1336 80.8621 29.7728C81.5407 29.4121 82.0851 28.8709 82.4954 28.1493C82.9215 27.4277 83.1346 26.5493 83.1346 25.514C83.1346 24.4787 82.9294 23.6002 82.5191 22.8787C82.1088 22.1571 81.5723 21.6238 80.9095 21.2787C80.2467 20.9179 79.5287 20.7375 78.7554 20.7375C77.9663 20.7375 77.2404 20.9179 76.5776 21.2787C75.9306 21.6238 75.4099 22.1571 75.0153 22.8787C74.6208 23.6002 74.4236 24.4787 74.4236 25.514C74.4236 26.565 74.6129 27.4513 74.9917 28.1728C75.3862 28.8944 75.9069 29.4356 76.554 29.7964C77.201 30.1415 77.9111 30.314 78.6844 30.314Z" stroke="white" mask="url(#path-1-outside-1)"/>
<path d="M89.2808 16.9963C88.8705 16.9963 88.5233 16.8551 88.2392 16.5727C87.9552 16.2904 87.8132 15.9453 87.8132 15.5374C87.8132 15.1296 87.9552 14.7845 88.2392 14.5021C88.5233 14.2198 88.8705 14.0786 89.2808 14.0786C89.6753 14.0786 90.0067 14.2198 90.275 14.5021C90.559 14.7845 90.701 15.1296 90.701 15.5374C90.701 15.9453 90.559 16.2904 90.275 16.5727C90.0067 16.8551 89.6753 16.9963 89.2808 16.9963ZM90.3223 19.0904V31.9846H88.1682V19.0904H90.3223Z" stroke="white" mask="url(#path-1-outside-1)"/>
<path d="M100.314 18.8551C101.892 18.8551 103.17 19.3336 104.149 20.2904C105.127 21.2316 105.616 22.5963 105.616 24.3846V31.9846H103.486V24.6904C103.486 23.4042 103.162 22.4238 102.515 21.7493C101.868 21.0591 100.984 20.714 99.864 20.714C98.7278 20.714 97.8204 21.0669 97.1418 21.7728C96.479 22.4787 96.1477 23.5061 96.1477 24.8552V31.9846H93.9936V19.0904H96.1477V20.9257C96.5737 20.2669 97.1497 19.7571 97.8757 19.3963C98.6174 19.0355 99.4301 18.8551 100.314 18.8551Z" stroke="white" mask="url(#path-1-outside-1)"/>
<path d="M117.396 23.5375C117.996 23.6316 118.54 23.8748 119.029 24.2669C119.534 24.6591 119.929 25.1454 120.213 25.7258C120.513 26.3061 120.663 26.9258 120.663 27.5846C120.663 28.416 120.45 29.1689 120.024 29.8434C119.598 30.5023 118.974 31.0277 118.154 31.4199C117.349 31.7964 116.394 31.9846 115.289 31.9846H109.135V15.5845H115.053C116.173 15.5845 117.128 15.7727 117.917 16.1492C118.706 16.51 119.298 17.0041 119.692 17.6316C120.087 18.259 120.284 18.9649 120.284 19.7492C120.284 20.7218 120.016 21.5296 119.479 22.1728C118.958 22.8002 118.264 23.2551 117.396 23.5375ZM111.289 22.6669H114.911C115.921 22.6669 116.702 22.4316 117.254 21.961C117.806 21.4904 118.083 20.8394 118.083 20.0081C118.083 19.1767 117.806 18.5257 117.254 18.0551C116.702 17.5845 115.905 17.3492 114.863 17.3492H111.289V22.6669ZM115.1 30.2199C116.173 30.2199 117.009 29.9689 117.609 29.467C118.209 28.965 118.509 28.2669 118.509 27.3728C118.509 26.463 118.193 25.7493 117.562 25.2316C116.931 24.6983 116.086 24.4316 115.029 24.4316H111.289V30.2199H115.1Z" stroke="white" mask="url(#path-1-outside-1)"/>
<path d="M122.847 25.4905C122.847 24.1728 123.115 23.0199 123.652 22.0316C124.189 21.0277 124.922 20.2512 125.853 19.7022C126.8 19.1532 127.85 18.8786 129.002 18.8786C130.138 18.8786 131.124 19.1218 131.961 19.6081C132.797 20.0943 133.42 20.7061 133.831 21.4434V19.0904H136.008V31.9846H133.831V29.5846C133.405 30.3375 132.765 30.965 131.913 31.467C131.077 31.9532 130.098 32.1964 128.978 32.1964C127.826 32.1964 126.784 31.914 125.853 31.3493C124.922 30.7846 124.189 29.9924 123.652 28.9728C123.115 27.9532 122.847 26.7924 122.847 25.4905ZM133.831 25.514C133.831 24.5414 133.633 23.6944 133.239 22.9728C132.844 22.2512 132.308 21.7022 131.629 21.3257C130.966 20.9336 130.233 20.7375 129.428 20.7375C128.623 20.7375 127.889 20.9257 127.226 21.3022C126.564 21.6787 126.035 22.2277 125.64 22.9493C125.246 23.6708 125.049 24.5179 125.049 25.4905C125.049 26.4787 125.246 27.3414 125.64 28.0787C126.035 28.8003 126.564 29.3571 127.226 29.7493C127.889 30.1258 128.623 30.314 129.428 30.314C130.233 30.314 130.966 30.1258 131.629 29.7493C132.308 29.3571 132.844 28.8003 133.239 28.0787C133.633 27.3414 133.831 26.4865 133.831 25.514Z" stroke="white" mask="url(#path-1-outside-1)"/>
<path d="M144.241 32.1964C143.247 32.1964 142.355 32.0317 141.566 31.7023C140.777 31.3572 140.154 30.8866 139.696 30.2905C139.238 29.6787 138.986 28.9807 138.938 28.1964H141.164C141.227 28.8395 141.526 29.365 142.063 29.7728C142.615 30.1807 143.333 30.3846 144.217 30.3846C145.038 30.3846 145.685 30.2042 146.158 29.8434C146.632 29.4826 146.868 29.0277 146.868 28.4787C146.868 27.914 146.616 27.4983 146.111 27.2316C145.606 26.9493 144.825 26.6748 143.767 26.4081C142.805 26.1571 142.016 25.9061 141.4 25.6552C140.801 25.3885 140.28 25.0042 139.838 24.5022C139.412 23.9846 139.199 23.31 139.199 22.4787C139.199 21.8198 139.396 21.2159 139.791 20.6669C140.185 20.1179 140.745 19.6865 141.471 19.3728C142.197 19.0434 143.026 18.8786 143.957 18.8786C145.393 18.8786 146.553 19.2394 147.436 19.961C148.32 20.6826 148.794 21.6708 148.857 22.9257H146.703C146.655 22.2512 146.379 21.71 145.874 21.3022C145.385 20.8943 144.722 20.6904 143.886 20.6904C143.112 20.6904 142.497 20.8551 142.039 21.1845C141.582 21.514 141.353 21.9453 141.353 22.4787C141.353 22.9022 141.487 23.2551 141.755 23.5375C142.039 23.8042 142.387 24.0238 142.797 24.1963C143.223 24.3532 143.807 24.5336 144.549 24.7375C145.48 24.9885 146.237 25.2395 146.821 25.4905C147.405 25.7258 147.902 26.0865 148.312 26.5728C148.738 27.0591 148.959 27.6944 148.975 28.4787C148.975 29.1846 148.778 29.8199 148.383 30.3846C147.989 30.9493 147.429 31.3964 146.703 31.7258C145.992 32.0395 145.172 32.1964 144.241 32.1964Z" stroke="white" mask="url(#path-1-outside-1)"/>
<path d="M163.851 25.0434C163.851 25.4512 163.828 25.8826 163.78 26.3375H153.412C153.491 27.6081 153.925 28.6042 154.714 29.3258C155.519 30.0317 156.49 30.3846 157.626 30.3846C158.557 30.3846 159.33 30.1728 159.946 29.7493C160.577 29.3101 161.019 28.7297 161.271 28.0081H163.591C163.244 29.2473 162.55 30.2591 161.508 31.0434C160.466 31.8121 159.172 32.1964 157.626 32.1964C156.395 32.1964 155.29 31.9219 154.312 31.3728C153.349 30.8238 152.592 30.0473 152.04 29.0434C151.487 28.0238 151.211 26.8473 151.211 25.514C151.211 24.1806 151.479 23.012 152.016 22.0081C152.552 21.0042 153.302 20.2355 154.265 19.7022C155.243 19.1532 156.363 18.8786 157.626 18.8786C158.857 18.8786 159.946 19.1453 160.893 19.6787C161.839 20.212 162.565 20.9492 163.07 21.8904C163.591 22.8159 163.851 23.8669 163.851 25.0434ZM161.626 24.5963C161.626 23.7806 161.445 23.0826 161.082 22.5022C160.719 21.9061 160.222 21.4591 159.591 21.161C158.975 20.8473 158.289 20.6904 157.531 20.6904C156.442 20.6904 155.511 21.0355 154.738 21.7257C153.981 22.4159 153.547 23.3728 153.436 24.5963H161.626Z" stroke="white" mask="url(#path-1-outside-1)"/>
<path d="M29.6412 34.612H40.2099C42.4862 34.612 44.2748 32.5523 44.2748 30.1493C44.2748 27.7463 42.4862 25.6866 40.2099 25.6866C39.3969 25.6866 38.584 25.6866 37.771 25.6866C41.0229 18.306 39.3969 2 24.7634 2C15.0076 2 10.1298 8.00747 10.1298 20.1941H8.50381C4.92672 20.1941 2 23.4553 2 27.403C2 31.3508 4.92672 34.612 8.50381 34.612H16.6336H29.6412Z" stroke="white" stroke-width="3" stroke-linecap="round" stroke-linejoin="round"/>
<path d="M24.6453 17.9585L22.0381 18.8295L20.7591 15.0011L23.3253 14.1437C23.8517 13.9679 24.41 14.0043 24.9008 14.2438L24.901 14.2439C25.3917 14.483 25.7525 14.8944 25.9228 15.4041C26.093 15.9137 26.0518 16.4589 25.8034 16.945L25.8032 16.9454C25.5614 17.4197 25.1531 17.7775 24.6453 17.9585ZM18.7645 15.6664L19.2024 15.5202L22.4768 25.3214L22.0389 25.4677C21.6172 25.6086 21.3735 26.0659 21.5187 26.5007C21.664 26.9356 22.1337 27.1546 22.5554 27.0137L24.8108 26.2602L24.9515 26.6813C25.0968 27.1162 25.5664 27.3351 25.9881 27.1942C26.4099 27.0534 26.6536 26.596 26.5083 26.1612L26.3676 25.7401L26.6479 25.6464L26.7886 26.0676C26.9339 26.5024 27.4035 26.7214 27.8252 26.5805C28.2479 26.4393 28.4899 25.9815 28.345 25.5476L28.203 25.1225C30.1924 24.3572 31.2673 22.1762 30.5906 20.1506C30.0971 18.6735 28.8089 17.6905 27.3534 17.4928C27.706 16.6956 27.7762 15.7732 27.4792 14.8841C26.964 13.3422 25.5081 12.3849 23.9539 12.4038L23.7561 11.8117L23.7561 11.8116C23.6111 11.3777 23.1422 11.158 22.72 11.2991C22.2987 11.4398 22.0544 11.8968 22.1997 12.3317L22.3408 12.7541L22.0605 12.8478L21.9194 12.4254C21.9194 12.4254 21.9194 12.4253 21.9194 12.4253C21.7741 11.9904 21.3041 11.7721 20.8829 11.9128C20.4616 12.0536 20.2173 12.5106 20.3626 12.9454L20.5037 13.3679L20.0484 13.52L20.0481 13.5191L19.5739 13.6775L18.248 14.1205C17.8263 14.2614 17.5826 14.7187 17.7279 15.1535C17.8731 15.5883 18.3428 15.8073 18.7645 15.6664ZM28.8964 22.4531L28.8963 22.4533C28.6096 23.0154 28.1195 23.4363 27.5115 23.6394L24.0332 24.8014L22.5547 20.3759L25.1209 19.5186C25.1402 19.5122 25.1585 19.5055 25.1713 19.5008L26.0327 19.213C26.6404 19.01 27.2854 19.0523 27.8527 19.3291L27.8529 19.3292C28.42 19.6056 28.8373 20.0812 29.0342 20.6705C29.2312 21.2601 29.1834 21.8907 28.8964 22.4531Z" fill="white" stroke="white"/>
</svg>
